<?xml version="1.0" encoding="UTF-8"?>
<svg version="1.1" xmlns="http://www.w3.org/2000/svg" width="500" height="500">
<path d="M0 0 C165 0 330 0 500 0 C500 165 500 330 500 500 C335 500 170 500 0 500 C0 335 0 170 0 0 Z " fill="#F4F4F4" transform="translate(0,0)"/>
<path d="M0 0 C2.9444049 -0.30401999 5.67466124 -0.41990857 8.62109375 -0.3984375 C9.904645 -0.40274277 9.904645 -0.40274277 11.21412659 -0.40713501 C13.02565166 -0.40917837 14.83719866 -0.40362951 16.64868164 -0.39111328 C19.42319114 -0.37508267 22.19623953 -0.39094217 24.97070312 -0.41015625 C26.72916989 -0.40817348 28.48763574 -0.4043291 30.24609375 -0.3984375 C31.07741318 -0.40451019 31.9087326 -0.41058289 32.76524353 -0.4168396 C38.44108296 -0.34750544 38.44108296 -0.34750544 40.71603394 1.06694031 C42.65589573 3.98747595 42.43932778 6.92542293 42.43237305 10.31713867 C42.44766052 11.42970284 42.44766052 11.42970284 42.46325684 12.56474304 C42.49344663 15.01589451 42.50266163 17.46665559 42.51171875 19.91796875 C42.52856105 21.61763311 42.54671068 23.31728497 42.56611633 25.016922 C42.61367142 29.49014381 42.64344502 33.963315 42.66955566 38.43670654 C42.69933349 43.00152589 42.74587331 47.56617068 42.79101562 52.13085938 C42.87711133 61.08714838 42.94442865 70.04347324 43 79 C43.40634171 78.45023499 43.81268341 77.90046997 44.2313385 77.33404541 C45.03540382 76.25265289 45.03540382 76.25265289 45.85571289 75.14941406 C46.3858046 74.43464905 46.9158963 73.71988403 47.46205139 72.98345947 C53.77407927 64.84297193 62.04090916 59.41245058 72 57 C87.94175252 55.88473336 102.47033588 57.87410179 115.3125 68.1875 C128.49410001 80.65658109 132.7902841 99.56174938 133.38687134 117.09733582 C133.45018884 120.39573914 133.46310279 123.69179447 133.44604492 126.99072266 C133.43750494 129.49855062 133.46648772 132.00411169 133.49804688 134.51171875 C133.57547976 152.66494664 129.94056334 171.74516554 116.82421875 185.23828125 C105.59607604 195.56062421 91.95081641 197.86300472 77.11328125 197.34375 C64.59530666 196.52995086 53.11310458 190.96098013 44.8125 181.5625 C43.86003197 180.38697154 42.91626238 179.20396252 42 178 C40.73943979 180.52112042 40.82072658 182.499516 40.6875 185.3125 C40.36996293 188.72043311 39.99228973 191.0178738 38.625 194.1875 C34.99071087 196.69689011 31.99186828 196.6045073 27.65625 196.6640625 C23.94271635 195.73567909 23.04622811 194.19323313 21 191 C20.50780869 187.66733837 20.50780869 187.66733837 20.51898193 183.79301453 C20.51556423 183.07820429 20.51214653 182.36339406 20.50862527 181.62692291 C20.50204911 179.23744311 20.52401659 176.84909267 20.54589844 174.4597168 C20.54702698 172.74471564 20.54639292 171.02971256 20.54412842 169.31471252 C20.5429806 164.66209502 20.56650086 160.00988989 20.59442425 155.35736823 C20.6194266 150.49402948 20.62177898 145.63068131 20.62652588 140.76728821 C20.63895908 131.55921204 20.67178538 122.35132579 20.71192384 113.14333326 C20.7566308 102.65976765 20.77862589 92.17619298 20.79870558 81.69255579 C20.84051767 60.12826451 20.91087647 38.56414422 21 17 C20.40985107 17.01571045 19.81970215 17.0314209 19.21166992 17.04760742 C16.53704414 17.10997939 13.86257136 17.14899657 11.1875 17.1875 C10.25873047 17.21263672 9.32996094 17.23777344 8.37304688 17.26367188 C7.0340332 17.27817383 7.0340332 17.27817383 5.66796875 17.29296875 C4.84578857 17.3086792 4.0236084 17.32438965 3.17651367 17.34057617 C0.4804365 16.91869982 -0.38124045 16.16166364 -2 14 C-2.36328125 11.40625 -2.36328125 11.40625 -2.3125 8.5 C-2.30669922 7.06140625 -2.30669922 7.06140625 -2.30078125 5.59375 C-2 3 -2 3 0 0 Z " fill="#222222" transform="translate(243,135)"/>
<path d="M0 0 C5.8733515 4.48464149 10.07877899 11.24099064 11.80078125 18.375 C11.84203125 19.15875 11.88328125 19.9425 11.92578125 20.75 C12.58578125 20.75 13.24578125 20.75 13.92578125 20.75 C14.20421875 19.574375 14.20421875 19.574375 14.48828125 18.375 C18.44986188 8.38492712 25.0326411 1.74826429 34.48828125 -3.0625 C46.15337242 -7.09225877 60.65643299 -6.53286363 72.05078125 -1.6875 C81.98143963 3.78940856 86.5535782 13.60497911 89.6015625 24.0703125 C90.18382338 26.62159298 90.55365821 29.15878324 90.92578125 31.75 C91.09489014 32.90016602 91.26399902 34.05033203 91.43823242 35.23535156 C93.50957601 50.98012415 93.15776381 66.80549712 93.06311035 82.64971924 C93.04233172 86.50538911 93.03344953 90.36108668 93.0234375 94.21679688 C93.00224484 101.72793828 92.9682942 109.23894569 92.92578125 116.75 C94.46298828 116.80607422 94.46298828 116.80607422 96.03125 116.86328125 C97.39196187 116.92897079 98.75263736 116.99541709 100.11328125 117.0625 C100.78681641 117.08505859 101.46035156 117.10761719 102.15429688 117.13085938 C106.51145099 117.36465789 109.46872825 118.04104141 112.92578125 120.75 C113.51953125 123.125 113.51953125 123.125 113.42578125 125.75 C113.41546875 126.61625 113.40515625 127.4825 113.39453125 128.375 C112.82768072 131.24704269 112.24218052 131.99606397 109.92578125 133.75 C107.41453552 134.13095093 107.41453552 134.13095093 104.38452148 134.13818359 C103.2500206 134.14764008 102.11551971 134.15709656 100.94664001 134.1668396 C99.72159256 134.16076691 98.4965451 134.15469421 97.234375 134.1484375 C95.35009544 134.15274277 95.35009544 134.15274277 93.42774963 134.15713501 C90.77028483 134.15917813 88.11364581 134.15513529 85.45629883 134.14111328 C82.0473677 134.12400345 78.6391442 134.13387451 75.23023891 134.15183067 C71.98159199 134.16526382 68.73303114 134.1558658 65.484375 134.1484375 C64.25730331 134.15451019 63.03023163 134.16058289 61.76597595 134.1668396 C60.63462723 134.15738312 59.5032785 134.14792664 58.33764648 134.13818359 C57.33853745 134.13579681 56.33942841 134.13341003 55.31004333 134.13095093 C54.52323685 134.00523712 53.73643036 133.87952332 52.92578125 133.75 C50.68344116 130.38648987 50.6547991 129.12689944 50.67578125 125.1875 C50.66804688 123.73150391 50.66804688 123.73150391 50.66015625 122.24609375 C50.92578125 119.75 50.92578125 119.75 52.92578125 117.75 C54.80517578 117.43115234 54.80517578 117.43115234 57.05859375 117.3359375 C57.86425781 117.29726563 58.66992188 117.25859375 59.5 117.21875 C60.34175781 117.1878125 61.18351563 117.156875 62.05078125 117.125 C62.90027344 117.08632813 63.74976563 117.04765625 64.625 117.0078125 C66.72489809 116.91343506 68.82531016 116.83062414 70.92578125 116.75 C70.86424576 107.06515829 70.78691052 97.38060307 70.69006634 87.69604969 C70.64556734 83.19785711 70.60626769 78.69975086 70.5793457 74.20141602 C70.55310647 69.85050755 70.51256294 65.499935 70.46259499 61.14923668 C70.44606432 59.49932765 70.43446499 57.8493607 70.42816734 56.19938087 C70.49065689 37.91550299 70.49065689 37.91550299 62.92578125 21.75 C62.92578125 21.09 62.92578125 20.43 62.92578125 19.75 C62.20390625 19.46125 61.48203125 19.1725 60.73828125 18.875 C59.0044456 18.18146574 57.28020098 17.46259882 55.57421875 16.703125 C48.44877866 14.13880733 40.91498979 15.36275572 34.1484375 18.4296875 C27.64808294 22.29105805 24.23222386 28.73800259 21.92578125 35.75 C20.74677526 40.38707265 19.76790241 45.04055809 18.92578125 49.75 C18.7546582 50.69093506 18.58353516 51.63187012 18.40722656 52.60131836 C17.57487846 58.54461269 17.6878056 64.56901499 17.609375 70.55859375 C17.5887714 71.89380995 17.56777411 73.22902012 17.54640198 74.56422424 C17.49153262 78.05755702 17.44197031 81.55094518 17.39355469 85.04437256 C17.34308102 88.61752174 17.28753076 92.19059171 17.23242188 95.76367188 C17.12527094 102.75904577 17.02373263 109.7544914 16.92578125 116.75 C17.97378906 116.78738281 19.02179688 116.82476562 20.1015625 116.86328125 C21.4805043 116.92894515 22.85940896 116.99539235 24.23828125 117.0625 C24.92857422 117.08505859 25.61886719 117.10761719 26.33007812 117.13085938 C31.43820584 117.40230578 31.43820584 117.40230578 33.88134766 119.14453125 C35.34645702 121.39664886 35.32459881 123.08243297 35.30078125 125.75 C35.30851563 126.61625 35.31625 127.4825 35.32421875 128.375 C34.83793296 131.27364468 34.24239612 131.98471286 31.92578125 133.75 C29.52842712 134.1242218 29.52842712 134.1242218 26.65991211 134.12231445 C25.04825417 134.13165764 25.04825417 134.13165764 23.40403748 134.14118958 C21.6648983 134.12737495 21.6648983 134.12737495 19.890625 134.11328125 C18.10622765 134.11402901 18.10622765 134.11402901 16.28578186 134.11479187 C13.76984996 134.11245009 11.25391577 134.10271552 8.73803711 134.08618164 C4.87527655 134.06257331 1.01320505 134.06562215 -2.84960938 134.07226562 C-5.29036872 134.06668966 -7.73112515 134.0595803 -10.171875 134.05078125 C-11.33332535 134.05169266 -12.4947757 134.05260406 -13.69142151 134.05354309 C-14.76270798 134.04401108 -15.83399445 134.03447906 -16.93774414 134.0246582 C-17.8835585 134.02005081 -18.82937286 134.01544342 -19.80384827 134.01069641 C-22.07421875 133.75 -22.07421875 133.75 -24.07421875 131.75 C-24.33984375 129 -24.33984375 129 -24.32421875 125.75 C-24.33195312 124.14125 -24.33195312 124.14125 -24.33984375 122.5 C-24.07421875 119.75 -24.07421875 119.75 -22.07421875 117.75 C-17.59827742 116.95072476 -13.33549781 116.70400027 -8.79296875 116.7265625 C-7.90544922 116.72994629 -7.01792969 116.73333008 -6.10351562 116.73681641 C-5.43384766 116.74116699 -4.76417969 116.74551758 -4.07421875 116.75 C-4.1590208 107.43909361 -4.25405421 98.12836174 -4.36174583 88.8176918 C-4.41145164 84.4932392 -4.45778141 80.16880803 -4.49609375 75.84423828 C-4.53327461 71.66197746 -4.57971794 67.47990816 -4.63228226 63.29781342 C-4.65065367 61.71126453 -4.66582347 60.12467487 -4.67756271 58.53806305 C-4.53180795 37.24605937 -4.53180795 37.24605937 -14.57421875 19.25 C-21.23390657 15.25418731 -27.42880754 14.87934819 -35.07421875 15.75 C-41.45920174 17.86886843 -46.61864355 21.99405642 -50.07421875 27.75 C-53.54610927 34.89630799 -55.37682284 42.03796366 -56.17578125 49.91015625 C-56.2582309 50.71181717 -56.34068054 51.51347809 -56.42562866 52.33943176 C-57.58165477 64.83305911 -57.54571923 77.40090639 -57.69921875 89.9375 C-57.73749915 92.54883971 -57.77655628 95.16016815 -57.81640625 97.77148438 C-57.91128308 104.09755453 -57.99663095 110.42369538 -58.07421875 116.75 C-56.15996094 116.82347656 -56.15996094 116.82347656 -54.20703125 116.8984375 C-52.53773803 116.97346191 -50.86846829 117.04900988 -49.19921875 117.125 C-48.35746094 117.1559375 -47.51570313 117.186875 -46.6484375 117.21875 C-45.84277344 117.25742187 -45.03710938 117.29609375 -44.20703125 117.3359375 C-43.09158936 117.38306885 -43.09158936 117.38306885 -41.95361328 117.43115234 C-40.07421875 117.75 -40.07421875 117.75 -38.07421875 119.75 C-37.80859375 122.5 -37.80859375 122.5 -37.82421875 125.75 C-37.81648438 127.35875 -37.81648438 127.35875 -37.80859375 129 C-38.07421875 131.75 -38.07421875 131.75 -40.07421875 133.75 C-42.57910156 134.00396729 -42.57910156 134.00396729 -45.77734375 134.00878906 C-46.97198242 134.01509338 -48.16662109 134.02139771 -49.39746094 134.02789307 C-50.69329102 134.0238446 -51.98912109 134.01979614 -53.32421875 134.015625 C-54.66178457 134.01697178 -55.99934992 134.01891243 -57.33691406 134.02142334 C-60.14132341 134.024374 -62.94560544 134.02007894 -65.75 134.01074219 C-69.34826797 133.99934754 -72.94623761 134.00590734 -76.54449463 134.01788712 C-79.30682633 134.02510736 -82.06908708 134.02281706 -84.8314209 134.01763153 C-86.80460808 134.01564475 -88.77779801 134.02172842 -90.75097656 134.02789307 C-91.94561523 134.02158875 -93.14025391 134.01528442 -94.37109375 134.00878906 C-95.42651367 134.00719788 -96.48193359 134.00560669 -97.56933594 134.00396729 C-100.07421875 133.75 -100.07421875 133.75 -102.07421875 131.75 C-102.375 129 -102.375 129 -102.38671875 125.75 C-102.40347656 124.6775 -102.42023438 123.605 -102.4375 122.5 C-102.31761719 121.5925 -102.19773438 120.685 -102.07421875 119.75 C-98.90530249 117.63738916 -97.63643994 117.4086324 -93.94921875 117.125 C-92.61503906 117.01285156 -92.61503906 117.01285156 -91.25390625 116.8984375 C-87.19812591 116.70910132 -83.13441608 116.75 -79.07421875 116.75 C-79.07421875 83.42 -79.07421875 50.09 -79.07421875 15.75 C-85.67421875 15.75 -92.27421875 15.75 -99.07421875 15.75 C-100.06421875 15.09 -101.05421875 14.43 -102.07421875 13.75 C-102.4375 10.78125 -102.4375 10.78125 -102.38671875 7.25 C-102.38285156 6.0846875 -102.37898438 4.919375 -102.375 3.71875 C-102.07421875 0.75 -102.07421875 0.75 -100.07421875 -1.25 C-97.24056267 -1.46219883 -94.50713854 -1.55396569 -91.671875 -1.55078125 C-90.83837021 -1.55506638 -90.00486542 -1.5593515 -89.14610291 -1.56376648 C-87.38167225 -1.56951435 -85.6172179 -1.57000668 -83.8527832 -1.56567383 C-81.15079342 -1.56251645 -78.44990097 -1.58595745 -75.74804688 -1.61132812 C-74.03515763 -1.61360131 -72.32226544 -1.61430453 -70.609375 -1.61328125 C-69.79992935 -1.622491 -68.9904837 -1.63170074 -68.1565094 -1.64118958 C-62.5088895 -1.59454121 -62.5088895 -1.59454121 -60.3825531 0.09089661 C-58.45208221 2.53893354 -58.31396948 4.88101404 -57.88671875 7.9375 C-57.72816406 9.02417969 -57.56960937 10.11085937 -57.40625 11.23046875 C-57.29667969 12.06191406 -57.18710938 12.89335937 -57.07421875 13.75 C-56.73390625 13.25371094 -56.39359375 12.75742188 -56.04296875 12.24609375 C-43.09711061 -5.89876593 -19.8304374 -11.95054608 0 0 Z " fill="#212121" transform="translate(141.07421875,197.25)"/>
<path d="M0 0 C8.62695515 5.8663295 11.33558823 13.95259744 13.421875 23.88671875 C13.61265625 24.91410156 13.8034375 25.94148438 14 27 C14.26018921 28.38674927 14.26018921 28.38674927 14.52563477 29.80151367 C15.35391039 35.38629954 15.18454925 40.98905955 15.1875 46.625 C15.19974609 47.83285156 15.21199219 49.04070312 15.22460938 50.28515625 C15.24610628 63.59890539 14.06939495 76.19860329 5.4375 86.9453125 C-2.25879142 94.30859131 -12.21988925 95.64894889 -22.43237305 95.53637695 C-31.25327599 95.15941529 -37.01920033 92.316636 -43.25 86.0625 C-51.9607922 75.56714388 -54.18688951 63.73565767 -54.18530273 50.54003906 C-54.18746288 48.53446357 -54.2058941 46.52892683 -54.22460938 44.5234375 C-54.24092121 33.583631 -53.81431417 23.36327895 -48.625 13.5625 C-47.74714844 11.86287109 -47.74714844 11.86287109 -46.8515625 10.12890625 C-42.54833029 2.85698853 -37.72057895 -0.79706316 -30.1875 -4.3125 C-19.86994062 -6.53785594 -9.34172253 -4.75899072 0 0 Z " fill="#F3F3F3" transform="translate(340,217)"/>
<path d="M0 0 C1.50046875 0.00386719 1.50046875 0.00386719 3.03125 0.0078125 C4.0315625 0.00523437 5.031875 0.00265625 6.0625 0 C8.53125 0.1328125 8.53125 0.1328125 9.53125 1.1328125 C10.21568115 11.57436685 8.9309006 21.81038929 7.53125 32.1328125 C10.61479148 29.86226169 13.69804656 27.59132229 16.78125 25.3203125 C17.65394531 24.67771484 18.52664063 24.03511719 19.42578125 23.37304688 C20.27011719 22.75107422 21.11445313 22.12910156 21.984375 21.48828125 C22.75942383 20.91746826 23.53447266 20.34665527 24.33300781 19.75854492 C25.79638975 18.67628589 27.23904812 17.56542087 28.65917969 16.42700195 C30.53125 15.1328125 30.53125 15.1328125 33.03125 15.0703125 C36.65153987 16.6089357 37.74470098 18.69205143 39.53125 22.1328125 C39.63671875 24.8359375 39.63671875 24.8359375 39.53125 27.1328125 C30.32799922 31.50940056 21.02142352 35.43125104 11.53125 39.1328125 C13.77970637 40.19867911 16.02988326 41.26062215 18.28125 42.3203125 C18.95559082 42.63983887 19.62993164 42.95936523 20.32470703 43.28857422 C25.56313254 45.74682287 30.87989582 47.86179888 36.3359375 49.796875 C38.53125 51.1328125 38.53125 51.1328125 39.50390625 53.51171875 C39.53658033 56.64376307 38.86499908 57.89644187 37.09375 60.4453125 C36.38412109 61.49138672 36.38412109 61.49138672 35.66015625 62.55859375 C35.28761719 63.07808594 34.91507812 63.59757812 34.53125 64.1328125 C29.76166012 63.66468609 26.87034499 61.38761322 23.28125 58.4453125 C22.13851843 57.53549541 20.99397762 56.6279462 19.84765625 55.72265625 C19.28836426 55.28034668 18.72907227 54.83803711 18.15283203 54.38232422 C14.75203926 51.76183982 11.15227334 49.43454827 7.53125 47.1328125 C7.675625 48.11378906 7.82 49.09476563 7.96875 50.10546875 C9.28737442 59.5262293 9.77729531 68.61906045 9.53125 78.1328125 C5.24125 78.1328125 0.95125 78.1328125 -3.46875 78.1328125 C-3.75263415 67.3452149 -2.65417345 56.84396011 -1.46875 46.1328125 C-2.12359375 46.67808594 -2.7784375 47.22335938 -3.453125 47.78515625 C-6.44205225 50.25482072 -9.44994494 52.69986719 -12.46875 55.1328125 C-13.00806152 55.57028809 -13.54737305 56.00776367 -14.10302734 56.45849609 C-15.69317571 57.7394887 -17.29709519 59.00081696 -18.90625 60.2578125 C-19.87433594 61.02351563 -20.84242188 61.78921875 -21.83984375 62.578125 C-24.46875 64.1328125 -24.46875 64.1328125 -26.640625 64.078125 C-28.81357049 62.95450789 -29.85449042 61.86562038 -31.28125 59.8828125 C-31.72082031 59.30015625 -32.16039062 58.7175 -32.61328125 58.1171875 C-33.81197162 55.33666371 -33.46821393 53.97245155 -32.46875 51.1328125 C-30.07617188 49.57128906 -30.07617188 49.57128906 -26.9375 48.2734375 C-25.81730469 47.79777344 -24.69710938 47.32210937 -23.54296875 46.83203125 C-22.36347656 46.35378906 -21.18398438 45.87554687 -19.96875 45.3828125 C-17.64525105 44.41024409 -15.32230298 43.4363582 -13 42.4609375 C-11.96423828 42.0371582 -10.92847656 41.61337891 -9.86132812 41.17675781 C-7.56035669 40.34619145 -7.56035669 40.34619145 -6.46875 39.1328125 C-7.25113037 38.80482666 -8.03351074 38.47684082 -8.83959961 38.13891602 C-11.73463172 36.92391147 -14.62873374 35.70672554 -17.5222168 34.48803711 C-18.77607816 33.9604632 -20.03030927 33.43376719 -21.28491211 32.90795898 C-23.08543711 32.15317549 -24.8845383 31.39499832 -26.68359375 30.63671875 C-27.76761475 30.18111572 -28.85163574 29.7255127 -29.96850586 29.25610352 C-32.46875 28.1328125 -32.46875 28.1328125 -33.46875 27.1328125 C-33.95572281 24.3732999 -33.78629476 22.66908564 -32.3515625 20.24609375 C-31.09974633 18.50274524 -29.81639828 16.80293377 -28.46875 15.1328125 C-21.95133957 15.31122792 -18.0942077 19.1317283 -13.28125 23.0703125 C-11.68407519 24.35086113 -10.08643822 25.63083359 -8.48828125 26.91015625 C-7.78807861 27.47984131 -7.08787598 28.04952637 -6.36645508 28.63647461 C-4.79132991 29.87845868 -3.1377408 31.02015197 -1.46875 32.1328125 C-1.52933594 31.58455811 -1.58992188 31.03630371 -1.65234375 30.47143555 C-4.10702419 7.97570551 -4.10702419 7.97570551 -3.46875 1.1328125 C-2.46875 0.1328125 -2.46875 0.1328125 0 0 Z " fill="#242424" transform="translate(418.46875,158.8671875)"/>
<path d="M0 0 C5.28 0 10.56 0 16 0 C16 5.28 16 10.56 16 16 C13 12 13 12 11.375 9.0625 C8.22977506 5.0068152 4.5611867 3.20262435 0 1 C0 0.67 0 0.34 0 0 Z " fill="#000000" transform="translate(484,0)"/>
<path d="M0 0 C5.28 0 10.56 0 16 0 C12 3 12 3 9.0625 4.625 C5.0068152 7.77022494 3.20262435 11.4388133 1 16 C0.67 16 0.34 16 0 16 C0 10.72 0 5.44 0 0 Z " fill="#000000" transform="translate(0,0)"/>
<path d="M0 0 C0.33 0 0.66 0 1 0 C1 5.28 1 10.56 1 16 C-4.28 16 -9.56 16 -15 16 C-12.90339962 14.60226641 -10.77509962 13.25144977 -8.625 11.9375 C-4.26731967 8.86584422 -2.23791542 4.7336552 0 0 Z " fill="#000000" transform="translate(499,484)"/>
<path d="M0 0 C3 4 3 4 4.10546875 5.78125 C7.21460722 10.71995371 10.62686901 12.85341417 16 15 C16 15.33 16 15.66 16 16 C10.72 16 5.44 16 0 16 C0 10.72 0 5.44 0 0 Z " fill="#000000" transform="translate(0,484)"/>
</svg>
