<?xml version="1.0" encoding="UTF-8"?>
<svg version="1.1" xmlns="http://www.w3.org/2000/svg" width="500" height="500">
<path d="M0 0 C165 0 330 0 500 0 C500 165 500 330 500 500 C335 500 170 500 0 500 C0 335 0 170 0 0 Z " fill="#FEFEFE" transform="translate(0,0)"/>
<path d="M0 0 C1.06734375 -0.00257813 2.1346875 -0.00515625 3.234375 -0.0078125 C4.91273438 0.00378906 4.91273438 0.00378906 6.625 0.015625 C7.74390625 0.00789062 8.8628125 0.00015625 10.015625 -0.0078125 C11.08296875 -0.00523437 12.1503125 -0.00265625 13.25 0 C14.23226563 0.00225586 15.21453125 0.00451172 16.2265625 0.00683594 C18.625 0.265625 18.625 0.265625 20.625 2.265625 C20.9034729 4.32839966 20.9034729 4.32839966 20.94384766 6.89892578 C20.96371735 7.85977081 20.98358704 8.82061584 21.00405884 9.81057739 C21.01561005 10.85019623 21.02716125 11.88981506 21.0390625 12.9609375 C21.05842865 14.02351776 21.0777948 15.08609802 21.0977478 16.18087769 C21.15766084 19.58404443 21.20397598 22.98724478 21.25 26.390625 C21.28816897 28.6940254 21.32722005 30.99741136 21.3671875 33.30078125 C21.46337187 38.95560128 21.54838481 44.61050783 21.625 50.265625 C22.09260742 49.71640381 22.56021484 49.16718262 23.04199219 48.60131836 C23.66235352 47.88081299 24.28271484 47.16030762 24.921875 46.41796875 C25.53385742 45.70374756 26.14583984 44.98952637 26.77636719 44.25366211 C30.81891866 39.90626424 35.07582369 37.41456564 41.1015625 37.0625 C52.83293295 36.83556018 60.81975798 37.66972883 69.6796875 46.08203125 C72.46650548 49.21020645 74.15667447 52.36640499 75.625 56.265625 C76.016875 57.255625 76.40875 58.245625 76.8125 59.265625 C78.8982315 66.96678745 78.80779223 74.77994053 78.8125 82.703125 C78.82474609 83.78400391 78.83699219 84.86488281 78.84960938 85.97851562 C78.87307549 98.87705915 76.21541017 109.393155 67.89453125 119.44140625 C61.48388865 124.59419471 54.75035879 125.96986402 46.6875 125.828125 C45.81013184 125.81789307 44.93276367 125.80766113 44.02880859 125.79711914 C36.18593741 125.53977265 30.4040308 123.98320815 24.703125 118.375 C23 116.453125 23 116.453125 20.625 113.265625 C20.58761719 113.88050781 20.55023438 114.49539063 20.51171875 115.12890625 C20.44597656 115.93714844 20.38023437 116.74539063 20.3125 117.578125 C20.25449219 118.37863281 20.19648438 119.17914063 20.13671875 120.00390625 C19.52828163 122.69310542 18.83597672 123.64595601 16.625 125.265625 C13.0625 125.640625 13.0625 125.640625 9.625 125.265625 C7.50451136 122.08489204 7.37627001 121.32864554 7.38449097 117.69087219 C7.38174164 116.7527771 7.37899231 115.81468201 7.37615967 114.84815979 C7.38335022 113.82101364 7.39054077 112.79386749 7.39794922 111.7355957 C7.39765717 110.65251129 7.39736511 109.56942688 7.39706421 108.45352173 C7.39845988 104.866069 7.41403241 101.2788228 7.4296875 97.69140625 C7.43341678 95.20704766 7.43626415 92.72268761 7.43826294 90.23832703 C7.44512444 84.362882 7.46089458 78.48751348 7.48096192 72.61209983 C7.50550529 65.2668025 7.51625075 57.92150084 7.52734375 50.57617188 C7.54880562 37.47261845 7.58256635 24.36912643 7.625 11.265625 C6.70976562 11.28882813 5.79453125 11.31203125 4.8515625 11.3359375 C3.06878906 11.36300781 3.06878906 11.36300781 1.25 11.390625 C-0.52503906 11.42542969 -0.52503906 11.42542969 -2.3359375 11.4609375 C-5.375 11.265625 -5.375 11.265625 -7.375 9.265625 C-7.625 5.765625 -7.625 5.765625 -7.375 2.265625 C-4.76631631 -0.34305869 -3.62967636 0.00833587 0 0 Z " fill="#1D1D1D" transform="translate(251.375,175.734375)"/>
<path d="M0 0 C4.05281568 2.52175198 7.19612488 6.2743028 9.375 10.5 C9.375 11.82 9.375 13.14 9.375 14.5 C10.035 14.5 10.695 14.5 11.375 14.5 C11.74625 13.1696875 11.74625 13.1696875 12.125 11.8125 C14.39427799 5.79891334 17.91681189 2.75168653 23.375 -0.5 C30.25277964 -2.79259321 40.1872123 -2.8079505 47.1640625 -0.62890625 C54.33712509 3.59461516 57.59951635 10.10759269 59.796875 17.875 C61.33651956 24.86581855 61.50899392 31.54591857 61.47265625 38.68359375 C61.4712413 39.73909927 61.46982635 40.7946048 61.46836853 41.88209534 C61.46279722 45.23392643 61.45025002 48.58568929 61.4375 51.9375 C61.43248129 54.21809799 61.42791903 56.49869703 61.42382812 58.77929688 C61.4128372 64.35288763 61.39612776 69.92643894 61.375 75.5 C62.53128906 75.57347656 62.53128906 75.57347656 63.7109375 75.6484375 C64.71382813 75.72320312 65.71671875 75.79796875 66.75 75.875 C68.24660156 75.97941406 68.24660156 75.97941406 69.7734375 76.0859375 C72.375 76.5 72.375 76.5 74.375 78.5 C74.625 81.5 74.625 81.5 74.375 84.5 C71.79210209 87.08289791 70.05205976 86.73755962 66.53282166 86.75224304 C65.73695145 86.74505753 64.94108124 86.73787201 64.12109375 86.73046875 C63.30504166 86.73001053 62.48898956 86.72955231 61.64820862 86.7290802 C59.92244005 86.72605744 58.19667422 86.71817042 56.47094727 86.70581055 C53.81972667 86.68754978 51.16885504 86.68530086 48.51757812 86.68554688 C46.84374696 86.68063194 45.16991818 86.67480373 43.49609375 86.66796875 C42.69819931 86.66685593 41.90030487 86.6657431 41.07823181 86.66459656 C35.49104901 86.61604901 35.49104901 86.61604901 34.375 85.5 C34.2421875 83.6875 34.2421875 83.6875 34.25 81.5 C34.24613281 80.4171875 34.24613281 80.4171875 34.2421875 79.3125 C34.375 77.5 34.375 77.5 35.375 76.5 C37.39094582 76.26572222 39.413474 76.08663876 41.4375 75.9375 C42.54222656 75.85371094 43.64695312 75.76992188 44.78515625 75.68359375 C45.63980469 75.62300781 46.49445313 75.56242187 47.375 75.5 C47.30770748 68.54368651 47.21778748 61.58792217 47.11254883 54.63208008 C47.0794098 52.26853984 47.05134398 49.90492255 47.02856445 47.54125977 C46.99481577 44.13264306 46.94248871 40.72472537 46.88671875 37.31640625 C46.88032883 36.26916885 46.8739389 35.22193146 46.86735535 34.14295959 C46.72194538 26.794226 46.19376169 19.61750225 41.08984375 13.97265625 C36.08306481 11.25674883 30.89555969 11.70142847 25.375 12.5 C21.69359211 14.12924831 19.8761253 16.76620939 17.625 20.0625 C13.37850841 31.74035187 13.95318547 44.49325972 13.75 56.75 C13.71173738 58.67058902 13.67268112 60.5911624 13.6328125 62.51171875 C13.53772701 67.17434934 13.4533741 71.8370598 13.375 76.5 C14.08527344 76.48839844 14.79554688 76.47679687 15.52734375 76.46484375 C16.44644531 76.45582031 17.36554688 76.44679688 18.3125 76.4375 C19.22902344 76.42589844 20.14554687 76.41429687 21.08984375 76.40234375 C23.375 76.5 23.375 76.5 24.375 77.5 C24.61228814 84.02542373 24.61228814 84.02542373 23.375 86.5 C18.26636104 86.5246501 13.15775641 86.54283607 8.04907227 86.55493164 C6.30980832 86.55997204 4.57054864 86.5668043 2.83129883 86.57543945 C0.33674063 86.58751792 -2.15776173 86.59323108 -4.65234375 86.59765625 C-5.43463852 86.60281754 -6.21693329 86.60797882 -7.02293396 86.61329651 C-8.89067114 86.61349226 -10.75829204 86.56199694 -12.625 86.5 C-13.625 85.5 -13.625 85.5 -13.7578125 83.6875 C-13.75523437 82.965625 -13.75265625 82.24375 -13.75 81.5 C-13.75386719 80.4171875 -13.75386719 80.4171875 -13.7578125 79.3125 C-13.625 77.5 -13.625 77.5 -12.625 76.5 C-10.60905418 76.26572222 -8.586526 76.08663876 -6.5625 75.9375 C-4.90541016 75.81181641 -4.90541016 75.81181641 -3.21484375 75.68359375 C-2.36019531 75.62300781 -1.50554687 75.56242187 -0.625 75.5 C-0.71792186 68.98933687 -0.82530538 62.47902317 -0.94238281 55.96875 C-0.98048484 53.75754093 -1.01536921 51.54627383 -1.046875 49.33496094 C-1.09293585 46.14236825 -1.15085998 42.95016861 -1.2109375 39.7578125 C-1.22248871 38.78135773 -1.23403992 37.80490295 -1.24594116 36.79885864 C-1.39036768 24.05852432 -1.39036768 24.05852432 -7.625 13.5 C-12.07628971 11.27435514 -17.79221536 12.00553726 -22.625 12.5 C-26.33397057 13.88468234 -28.02969046 16.33837326 -29.828125 19.84765625 C-33.17973723 27.67201859 -33.78680765 35.07790609 -33.94140625 43.4921875 C-33.96218735 44.43812775 -33.98296844 45.38406799 -34.00437927 46.3586731 C-34.06947585 49.36404541 -34.12857336 52.36950101 -34.1875 55.375 C-34.2307232 57.41927926 -34.27433868 59.46355026 -34.31835938 61.5078125 C-34.4251161 66.50512416 -34.52649471 71.50251916 -34.625 76.5 C-33.77035156 76.48839844 -32.91570312 76.47679687 -32.03515625 76.46484375 C-30.37806641 76.45130859 -30.37806641 76.45130859 -28.6875 76.4375 C-27.58535156 76.42589844 -26.48320312 76.41429687 -25.34765625 76.40234375 C-22.625 76.5 -22.625 76.5 -21.625 77.5 C-21.4921875 79.3125 -21.4921875 79.3125 -21.5 81.5 C-21.49613281 82.5828125 -21.49613281 82.5828125 -21.4921875 83.6875 C-21.625 85.5 -21.625 85.5 -22.625 86.5 C-25.49764056 86.60106874 -28.34573628 86.63969672 -31.21875 86.6328125 C-32.08060913 86.63376923 -32.94246826 86.63472595 -33.83044434 86.63571167 C-35.65633212 86.6363935 -37.48222231 86.63453904 -39.30810547 86.63037109 C-42.11301078 86.62502286 -44.91775595 86.63031599 -47.72265625 86.63671875 C-49.49218786 86.63605797 -51.26171936 86.63477681 -53.03125 86.6328125 C-53.87602905 86.63483673 -54.72080811 86.63686096 -55.59118652 86.63894653 C-61.51004969 86.61495031 -61.51004969 86.61495031 -62.625 85.5 C-62.7578125 83.6875 -62.7578125 83.6875 -62.75 81.5 C-62.75257812 80.778125 -62.75515625 80.05625 -62.7578125 79.3125 C-62.625 77.5 -62.625 77.5 -61.625 76.5 C-57.335 76.5 -53.045 76.5 -48.625 76.5 C-48.625 55.05 -48.625 33.6 -48.625 11.5 C-52.915 11.5 -57.205 11.5 -61.625 11.5 C-62.625 10.5 -62.625 10.5 -62.7578125 8.46875 C-62.75523438 7.6540625 -62.75265625 6.839375 -62.75 6 C-62.75257812 5.1853125 -62.75515625 4.370625 -62.7578125 3.53125 C-62.625 1.5 -62.625 1.5 -61.625 0.5 C-57.67385455 0.21941511 -53.70992277 0.26818564 -49.75 0.25 C-48.63496094 0.229375 -47.51992187 0.20875 -46.37109375 0.1875 C-45.30246094 0.18234375 -44.23382813 0.1771875 -43.1328125 0.171875 C-41.65772217 0.15785645 -41.65772217 0.15785645 -40.15283203 0.14355469 C-37.625 0.5 -37.625 0.5 -35.82373047 1.85253906 C-34.26908613 3.98914598 -33.97518021 5.90866646 -33.625 8.5 C-33.10550781 7.94570312 -32.58601563 7.39140625 -32.05078125 6.8203125 C-31.35339844 6.09585938 -30.65601563 5.37140625 -29.9375 4.625 C-29.25300781 3.90570313 -28.56851563 3.18640625 -27.86328125 2.4453125 C-21.20513685 -3.34134703 -7.94245704 -3.48542775 0 0 Z " fill="#212121" transform="translate(178.625,214.5)"/>
<path d="M0 0 C5.2242265 2.85476858 8.41019612 7.26927943 10.51953125 12.734375 C11.70458678 19.25218044 12.32645255 25.49861188 12.33203125 32.109375 C12.34427734 32.86927734 12.35652344 33.62917969 12.36914062 34.41210938 C12.38816211 41.8368282 11.12985375 48.76689241 7.14453125 55.171875 C1.55890266 60.63337851 -3.06329539 62.24335416 -10.73046875 62.609375 C-16.64741887 62.48473045 -20.55950367 61.29839366 -24.85546875 57.171875 C-33.86633327 46.15603551 -33.00856059 31.64745443 -31.85546875 18.171875 C-30.6040946 11.09497497 -27.3113847 5.6094091 -21.6015625 1.2578125 C-14.62497577 -3.08109379 -7.66063341 -2.84422817 0 0 Z " fill="#FCFCFC" transform="translate(304.85546875,226.828125)"/>
<path d="M0 0 C2.97 0 5.94 0 9 0 C8.67 6.27 8.34 12.54 8 19 C12.62 15.7 17.24 12.4 22 9 C26 11 26 11 27.25 13.625 C27.4975 14.40875 27.745 15.1925 28 16 C22.40037997 18.8505108 16.80862559 21.60078508 11 24 C13.64280641 26.64280641 16.72876827 27.71943083 20.125 29.125 C20.78371094 29.40214844 21.44242187 29.67929688 22.12109375 29.96484375 C23.74556827 30.64759391 25.37254948 31.32437433 27 32 C27 36.26826873 26.62386487 36.93882432 24 40 C17.83297851 37.85789016 13.19453425 33.8802545 8 30 C8 36.27 8 42.54 8 49 C5.36 49 2.72 49 0 49 C-0.05536025 47.35457036 -0.09338848 45.70855716 -0.125 44.0625 C-0.14820313 43.14597656 -0.17140625 42.22945312 -0.1953125 41.28515625 C0.05596467 37.05867419 0.98812612 33.10168267 2 29 C0.96359375 29.80566406 -0.0728125 30.61132812 -1.140625 31.44140625 C-2.50990981 32.48243785 -3.87972953 33.52276613 -5.25 34.5625 C-6.27287109 35.36204102 -6.27287109 35.36204102 -7.31640625 36.17773438 C-7.98027344 36.67724609 -8.64414062 37.17675781 -9.328125 37.69140625 C-9.9355957 38.15748291 -10.54306641 38.62355957 -11.16894531 39.10375977 C-13 40 -13 40 -15.10449219 39.83178711 C-17 39 -17 39 -19 36 C-19 34.68 -19 33.36 -19 32 C-13.72 29.69 -8.44 27.38 -3 25 C-5.64280641 22.35719359 -8.72876827 21.28056917 -12.125 19.875 C-12.78371094 19.59785156 -13.44242187 19.32070312 -14.12109375 19.03515625 C-15.74556827 18.35240609 -17.37254948 17.67562567 -19 17 C-18.45276317 13.62537285 -17.9451 11.91765 -16 9 C-11.74018303 9.57992558 -8.64675405 12.12571671 -5.25 14.5625 C-2.15625 16.7590625 -2.15625 16.7590625 1 19 C0.505 9.595 0.505 9.595 0 0 Z " fill="#242424" transform="translate(355,192)"/>
</svg>
