<?xml version="1.0" encoding="UTF-8"?>
<svg version="1.1" xmlns="http://www.w3.org/2000/svg" width="500" height="500">
<path d="M0 0 C165 0 330 0 500 0 C500 165 500 330 500 500 C335 500 170 500 0 500 C0 335 0 170 0 0 Z " fill="#FEFEFE" transform="translate(0,0)"/>
<path d="M0 0 C0.83208984 -0.00287018 1.66417969 -0.00574036 2.52148438 -0.00869751 C4.27995484 -0.01073812 6.03844801 -0.00520843 7.796875 0.00732422 C10.49009913 0.02337848 13.1818226 0.00747605 15.875 -0.01171875 C17.58333665 -0.00973632 19.29167236 -0.00589264 21 0 C22.20946289 -0.00910904 22.20946289 -0.00910904 23.44335938 -0.0184021 C28.94316205 0.05086178 28.94316205 0.05086178 31.20930481 1.46537781 C33.15824816 4.38428838 32.93933343 7.32110636 32.93237305 10.71557617 C32.94766052 11.82814034 32.94766052 11.82814034 32.96325684 12.96318054 C32.99344663 15.41433201 33.00266163 17.86509309 33.01171875 20.31640625 C33.02856105 22.01607061 33.04671068 23.71572247 33.06611633 25.4153595 C33.11367142 29.88858131 33.14344502 34.3617525 33.16955566 38.83514404 C33.19933349 43.39996339 33.24587331 47.96460818 33.29101562 52.52929688 C33.37711133 61.48558588 33.44442865 70.44191074 33.5 79.3984375 C33.95963135 78.79298096 34.4192627 78.18752441 34.89282227 77.5637207 C35.50697998 76.76281006 36.1211377 75.96189941 36.75390625 75.13671875 C37.3579126 74.34563721 37.96191895 73.55455566 38.58422852 72.73950195 C45.32240735 64.50547661 53.24175615 59.91440678 63.5 57.3984375 C78.25985383 56.31338879 93.56677599 58.2752856 105.3125 68.0234375 C118.56851311 80.8231748 123.29715776 99.27333385 123.86108398 117.21443176 C123.9115649 120.34018637 123.91628417 123.46356905 123.89111328 126.58959961 C123.87498388 128.96330972 123.89109463 131.33532416 123.91015625 133.70898438 C123.93701496 152.92092262 120.66644875 171.82931668 106.84765625 186.10546875 C96.06848692 196.12375554 83.20755746 198.0658462 69.078125 197.70703125 C55.95295015 197.04748848 44.16739606 191.84403295 35.3125 182.0859375 C32.5 178.73333211 32.5 178.73333211 32.5 176.3984375 C31.84 176.3984375 31.18 176.3984375 30.5 176.3984375 C30.54640625 177.42324219 30.5928125 178.44804687 30.640625 179.50390625 C30.67816011 180.86455406 30.71455841 182.22523355 30.75 183.5859375 C30.78351563 184.25947266 30.81703125 184.93300781 30.8515625 185.62695312 C30.92027999 189.14872467 30.57482783 191.26643981 28.828125 194.34765625 C26.01750629 196.82345293 24.70453376 197.07432395 21 197.0234375 C20.0615625 197.03632813 19.123125 197.04921875 18.15625 197.0625 C14.44271635 196.13411659 13.54622811 194.59167063 11.5 191.3984375 C11.00780869 188.06577587 11.00780869 188.06577587 11.01898193 184.19145203 C11.01556423 183.47664179 11.01214653 182.76183156 11.00862527 182.02536041 C11.00204911 179.63588061 11.02401659 177.24753017 11.04589844 174.8581543 C11.04702698 173.14315314 11.04639292 171.42815006 11.04412842 169.71315002 C11.0429806 165.06053252 11.06650086 160.40832739 11.09442425 155.75580573 C11.1194266 150.89246698 11.12177898 146.02911881 11.12652588 141.16572571 C11.13895908 131.95764954 11.17178538 122.74976329 11.21192384 113.54177076 C11.2566308 103.05820515 11.27862589 92.57463048 11.29870558 82.09099329 C11.34051767 60.52670201 11.41087647 38.96258172 11.5 17.3984375 C10.90985107 17.41414795 10.31970215 17.4298584 9.71166992 17.44604492 C7.03704414 17.50841689 4.36257136 17.54743407 1.6875 17.5859375 C0.75873047 17.61107422 -0.17003906 17.63621094 -1.12695312 17.66210938 C-2.4659668 17.67661133 -2.4659668 17.67661133 -3.83203125 17.69140625 C-4.65421143 17.7071167 -5.4763916 17.72282715 -6.32348633 17.73901367 C-9.01985201 17.31709218 -9.87937554 16.55873536 -11.5 14.3984375 C-11.8984375 11.8046875 -11.8984375 11.8046875 -11.875 8.8984375 C-11.88273438 7.939375 -11.89046875 6.9803125 -11.8984375 5.9921875 C-10.87975623 -0.63922786 -5.59488038 -0.0421377 0 0 Z " fill="#1E1E1E" transform="translate(252.5,134.6015625)"/>
<path d="M0 0 C6.18595178 4.16090894 10.0356265 10.66383712 12.3984375 17.61328125 C12.3984375 18.60328125 12.3984375 19.59328125 12.3984375 20.61328125 C13.0584375 20.61328125 13.7184375 20.61328125 14.3984375 20.61328125 C14.65496094 19.73671875 14.91148437 18.86015625 15.17578125 17.95703125 C18.48073507 8.91856328 24.88584451 1.95072031 33.3984375 -2.38671875 C34.37490234 -2.89332031 34.37490234 -2.89332031 35.37109375 -3.41015625 C40.4546035 -5.54542624 45.52535381 -5.65811127 50.9609375 -5.69921875 C51.66927734 -5.7048584 52.37761719 -5.71049805 53.10742188 -5.71630859 C62.63785382 -5.58602697 72.00534074 -2.89141778 79.4140625 3.296875 C88.10542551 12.38501763 91.11813328 25.39242723 92.51123047 37.55249023 C92.59559294 38.28497451 92.67995541 39.01745878 92.76687431 39.77213955 C93.61266825 47.71398279 93.6520004 55.60813002 93.59375 63.5859375 C93.59000478 65.13105584 93.58716498 66.67617662 93.58517456 68.22129822 C93.57765659 72.22424254 93.55811503 76.22703412 93.5357666 80.22991943 C93.51504796 84.34010758 93.50611812 88.4503212 93.49609375 92.56054688 C93.4748537 100.57819392 93.44086738 108.59571842 93.3984375 116.61328125 C94.50703125 116.65066406 95.615625 116.68804687 96.7578125 116.7265625 C98.22138724 116.79223573 99.68492741 116.8586826 101.1484375 116.92578125 C101.87804687 116.94833984 102.60765625 116.97089844 103.359375 116.99414062 C107.56607678 117.20447571 110.43583332 117.47455319 113.3984375 120.61328125 C113.89453125 122.98828125 113.89453125 122.98828125 113.8359375 125.61328125 C113.83400391 126.91265625 113.83400391 126.91265625 113.83203125 128.23828125 C113.30454677 131.12756562 112.72266113 131.85554631 110.3984375 133.61328125 C107.88719177 133.99423218 107.88719177 133.99423218 104.85717773 134.00146484 C103.72267685 134.01092133 102.58817596 134.02037781 101.41929626 134.03012085 C100.19424881 134.02404816 98.96920135 134.01797546 97.70703125 134.01171875 C95.82275169 134.01602402 95.82275169 134.01602402 93.90040588 134.02041626 C91.24294108 134.02245938 88.58630206 134.01841654 85.92895508 134.00439453 C82.52002395 133.9872847 79.11180045 133.99715576 75.70289516 134.01511192 C72.45424824 134.02854507 69.20568739 134.01914705 65.95703125 134.01171875 C64.72995956 134.01779144 63.50288788 134.02386414 62.2386322 134.03012085 C61.10728348 134.02066437 59.97593475 134.01120789 58.81030273 134.00146484 C57.8111937 133.99907806 56.81208466 133.99669128 55.78269958 133.99423218 C54.9958931 133.86851837 54.20908661 133.74280457 53.3984375 133.61328125 C51.23900931 130.37413896 51.12610772 129.36468392 51.1484375 125.61328125 C51.14070313 124.31390625 51.14070313 124.31390625 51.1328125 122.98828125 C51.3984375 120.61328125 51.3984375 120.61328125 53.3984375 117.61328125 C57.87435838 116.73408251 62.12629676 116.57490318 66.6796875 116.59375 C67.56720703 116.59656982 68.45472656 116.59938965 69.36914062 116.60229492 C70.03880859 116.60592041 70.70847656 116.6095459 71.3984375 116.61328125 C71.33685643 107.07609186 71.25948999 97.53919219 71.16272259 88.00229454 C71.11825514 83.57251223 71.0789491 79.14281691 71.05200195 74.71289062 C71.02573052 70.42681426 70.9851659 66.14107703 70.93525124 61.85521317 C70.91874186 60.2312509 70.90712957 58.6072302 70.90082359 56.98319626 C71.18025746 36.83706078 71.18025746 36.83706078 62.3984375 19.61328125 C56.29390186 15.30564521 49.6693267 14.73130948 42.3984375 15.61328125 C35.76548476 17.09997755 30.75219311 20.27094828 26.8359375 25.83203125 C16.56857976 43.69723371 17.75208416 66.60222034 17.66021729 86.47406006 C17.64025266 89.88780401 17.59833632 93.30128293 17.55859375 96.71484375 C17.48561815 103.3475893 17.43346797 109.98023223 17.3984375 116.61328125 C18.36265625 116.65066406 19.326875 116.68804687 20.3203125 116.7265625 C21.58359375 116.79230469 22.846875 116.85804688 24.1484375 116.92578125 C25.40140625 116.98378906 26.654375 117.04179687 27.9453125 117.1015625 C31.44527431 117.620222 32.9474317 118.11942172 35.3984375 120.61328125 C35.89453125 122.98828125 35.89453125 122.98828125 35.8359375 125.61328125 C35.83400391 126.91265625 35.83400391 126.91265625 35.83203125 128.23828125 C35.30592591 131.12001142 34.70719701 131.85183481 32.3984375 133.61328125 C30.00108337 133.98750305 30.00108337 133.98750305 27.13256836 133.9855957 C25.52091042 133.99493889 25.52091042 133.99493889 23.87669373 134.00447083 C22.13755455 133.9906562 22.13755455 133.9906562 20.36328125 133.9765625 C18.5788839 133.97731026 18.5788839 133.97731026 16.75843811 133.97807312 C14.24250621 133.97573134 11.72657202 133.96599677 9.21069336 133.94946289 C5.3479328 133.92585456 1.4858613 133.9289034 -2.37695312 133.93554688 C-4.81771247 133.92997091 -7.2584689 133.92286155 -9.69921875 133.9140625 C-10.8606691 133.91497391 -12.02211945 133.91588531 -13.21876526 133.91682434 C-14.29005173 133.90729233 -15.3613382 133.89776031 -16.46508789 133.88793945 C-17.41090225 133.88333206 -18.35671661 133.87872467 -19.33119202 133.87397766 C-21.6015625 133.61328125 -21.6015625 133.61328125 -23.6015625 131.61328125 C-23.8671875 128.86328125 -23.8671875 128.86328125 -23.8515625 125.61328125 C-23.85929687 124.00453125 -23.85929687 124.00453125 -23.8671875 122.36328125 C-23.6015625 119.61328125 -23.6015625 119.61328125 -21.6015625 117.61328125 C-19.72216797 117.29443359 -19.72216797 117.29443359 -17.46875 117.19921875 C-16.66308594 117.16054688 -15.85742188 117.121875 -15.02734375 117.08203125 C-14.18558594 117.05109375 -13.34382813 117.02015625 -12.4765625 116.98828125 C-11.62707031 116.94960938 -10.77757812 116.9109375 -9.90234375 116.87109375 C-7.80244566 116.77671631 -5.70203359 116.69390539 -3.6015625 116.61328125 C-3.66310466 107.05882084 -3.74044445 97.50465066 -3.83727741 87.95048237 C-3.8817718 83.51282421 -3.92107238 79.07525346 -3.94799805 74.63745117 C-3.97424199 70.34489506 -4.0147886 66.05267916 -4.06474876 61.76033592 C-4.08127631 60.13275614 -4.09287754 58.50511771 -4.09917641 56.8774662 C-4.16614832 37.54826727 -4.16614832 37.54826727 -12.6015625 20.61328125 C-17.61943165 15.90902892 -23.12178918 15.20553166 -29.7578125 15.375 C-36.30784153 15.92383485 -40.88126756 17.40228311 -45.4140625 22.30078125 C-59.37437681 39.94506739 -56.96528898 64.87049057 -57.20245361 86.06207275 C-57.24304268 89.51543168 -57.2938789 92.96863986 -57.34375 96.421875 C-57.43893288 103.15224534 -57.52420706 109.88268362 -57.6015625 116.61328125 C-55.68730469 116.68675781 -55.68730469 116.68675781 -53.734375 116.76171875 C-52.06508178 116.83674316 -50.39581204 116.91229113 -48.7265625 116.98828125 C-47.88480469 117.01921875 -47.04304688 117.05015625 -46.17578125 117.08203125 C-45.37011719 117.12070312 -44.56445312 117.159375 -43.734375 117.19921875 C-42.61893311 117.2463501 -42.61893311 117.2463501 -41.48095703 117.29443359 C-39.6015625 117.61328125 -39.6015625 117.61328125 -37.6015625 119.61328125 C-37.3359375 122.36328125 -37.3359375 122.36328125 -37.3515625 125.61328125 C-37.34382813 127.22203125 -37.34382813 127.22203125 -37.3359375 128.86328125 C-37.6015625 131.61328125 -37.6015625 131.61328125 -39.6015625 133.61328125 C-42.10644531 133.86724854 -42.10644531 133.86724854 -45.3046875 133.87207031 C-46.49932617 133.87837463 -47.69396484 133.88467896 -48.92480469 133.89117432 C-50.22063477 133.88712585 -51.51646484 133.88307739 -52.8515625 133.87890625 C-54.18912832 133.88025303 -55.52669367 133.88219368 -56.86425781 133.88470459 C-59.66866716 133.88765525 -62.47294919 133.88336019 -65.27734375 133.87402344 C-68.87561172 133.86262879 -72.47358136 133.86918859 -76.07183838 133.88116837 C-78.83417008 133.88838861 -81.59643083 133.88609831 -84.35876465 133.88091278 C-86.33195183 133.878926 -88.30514176 133.88500967 -90.27832031 133.89117432 C-91.47295898 133.88487 -92.66759766 133.87856567 -93.8984375 133.87207031 C-94.95385742 133.87047913 -96.00927734 133.86888794 -97.09667969 133.86724854 C-99.6015625 133.61328125 -99.6015625 133.61328125 -101.6015625 131.61328125 C-101.90234375 128.86328125 -101.90234375 128.86328125 -101.9140625 125.61328125 C-101.93082031 124.54078125 -101.94757813 123.46828125 -101.96484375 122.36328125 C-101.84496094 121.45578125 -101.72507813 120.54828125 -101.6015625 119.61328125 C-95.16847495 115.32455622 -86.32352508 116.99937938 -78.6015625 116.61328125 C-78.6015625 83.28328125 -78.6015625 49.95328125 -78.6015625 15.61328125 C-85.2015625 15.61328125 -91.8015625 15.61328125 -98.6015625 15.61328125 C-101.6015625 12.61328125 -101.6015625 12.61328125 -101.96484375 9.765625 C-101.94808594 8.70472656 -101.93132812 7.64382812 -101.9140625 6.55078125 C-101.91019531 5.48730469 -101.90632813 4.42382812 -101.90234375 3.328125 C-101.6015625 0.61328125 -101.6015625 0.61328125 -99.6015625 -1.38671875 C-96.85152685 -1.59888375 -94.2047833 -1.69068883 -91.453125 -1.6875 C-90.64418793 -1.69178513 -89.83525085 -1.69607025 -89.00180054 -1.70048523 C-87.28864478 -1.70623338 -85.57546461 -1.70672522 -83.86230469 -1.70239258 C-81.24371484 -1.6992394 -78.62626199 -1.72266093 -76.0078125 -1.74804688 C-74.34375143 -1.75032054 -72.67968731 -1.75102305 -71.015625 -1.75 C-70.23321442 -1.75920975 -69.45080383 -1.76841949 -68.64468384 -1.77790833 C-65.39273146 -1.75031235 -63.0145703 -1.61046187 -60.12744141 -0.04638672 C-57.89757586 2.37899344 -57.76799916 4.57339712 -57.3515625 7.80078125 C-57.20203125 8.88746094 -57.0525 9.97414062 -56.8984375 11.09375 C-56.80046875 11.92519531 -56.7025 12.75664062 -56.6015625 13.61328125 C-56.26125 13.11699219 -55.9209375 12.62070313 -55.5703125 12.109375 C-42.082775 -6.79470016 -20.50909339 -10.69628102 0 0 Z " fill="#1E1E1E" transform="translate(140.6015625,197.38671875)"/>
<path d="M0 0 C8.24136733 7.94819616 11.6529392 19.06659834 12.14526367 30.32055664 C12.16563675 33.54147422 12.18568243 36.76217245 12.18530273 39.9831543 C12.18746841 42.03260742 12.20559956 44.08150268 12.22460938 46.13085938 C12.28594223 59.91596585 11.72375582 74.03619164 2.296875 84.9765625 C-6.33524182 92.86989455 -17.07171418 93.45354896 -28.2734375 93.33203125 C-35.86123425 92.65596969 -40.96224724 89.40004328 -46.25 84.0625 C-55.25494867 73.21272411 -57.22235807 60.96096098 -57.29516602 47.36816406 C-57.30658441 45.8905268 -57.32687167 44.41292738 -57.35668945 42.93554688 C-57.6342764 29.15234701 -55.7731983 16.79905671 -48 5 C-47.1646875 3.6696875 -47.1646875 3.6696875 -46.3125 2.3125 C-34.07084787 -9.92915213 -13.70518254 -10.39352133 0 0 Z " fill="#FDFDFD" transform="translate(343,219)"/>
<path d="M0 0 C1.50046875 0.00386719 1.50046875 0.00386719 3.03125 0.0078125 C4.0315625 0.00523437 5.031875 0.00265625 6.0625 0 C8.53125 0.1328125 8.53125 0.1328125 9.53125 1.1328125 C10.21568115 11.57436685 8.9309006 21.81038929 7.53125 32.1328125 C10.61479148 29.86226169 13.69804656 27.59132229 16.78125 25.3203125 C17.65394531 24.67771484 18.52664063 24.03511719 19.42578125 23.37304688 C20.27011719 22.75107422 21.11445313 22.12910156 21.984375 21.48828125 C22.75942383 20.91746826 23.53447266 20.34665527 24.33300781 19.75854492 C25.79638975 18.67628589 27.23904812 17.56542087 28.65917969 16.42700195 C30.53125 15.1328125 30.53125 15.1328125 33.03125 15.0703125 C36.65153987 16.6089357 37.74470098 18.69205143 39.53125 22.1328125 C39.53125 23.7828125 39.53125 25.4328125 39.53125 27.1328125 C25.67125 33.0728125 25.67125 33.0728125 11.53125 39.1328125 C13.75875 40.1846875 15.98625 41.2365625 18.28125 42.3203125 C19.01456543 42.66779541 19.74788086 43.01527832 20.50341797 43.37329102 C25.68201915 45.8011356 30.94343774 47.88433508 36.3359375 49.796875 C38.53125 51.1328125 38.53125 51.1328125 39.50390625 53.51171875 C39.53658033 56.64376307 38.86499908 57.89644187 37.09375 60.4453125 C36.38412109 61.49138672 36.38412109 61.49138672 35.66015625 62.55859375 C35.28761719 63.07808594 34.91507812 63.59757812 34.53125 64.1328125 C29.79196714 63.65976024 26.91540456 61.43119279 23.34375 58.5078125 C22.2019297 57.59978805 21.0586833 56.69355419 19.9140625 55.7890625 C19.34848633 55.34046875 18.78291016 54.891875 18.20019531 54.4296875 C14.42983516 51.4998816 10.47526264 48.82150735 6.53125 46.1328125 C6.840625 47.3909375 7.15 48.6490625 7.46875 49.9453125 C9.5289022 59.29635795 9.64350338 68.5912752 9.53125 78.1328125 C5.24125 78.1328125 0.95125 78.1328125 -3.46875 78.1328125 C-3.73622733 67.4337193 -3.19101492 56.5375341 -0.46875 46.1328125 C-3.53251157 48.38109859 -6.59453112 50.63174567 -9.65625 52.8828125 C-10.52056641 53.51703125 -11.38488281 54.15125 -12.27539062 54.8046875 C-13.53706055 55.7328125 -13.53706055 55.7328125 -14.82421875 56.6796875 C-16.0450415 57.5759082 -16.0450415 57.5759082 -17.29052734 58.49023438 C-19.0192606 59.79385658 -20.68779703 61.17723478 -22.33203125 62.5859375 C-24.46875 64.1328125 -24.46875 64.1328125 -28.46875 64.1328125 C-29.98828125 62.55859375 -29.98828125 62.55859375 -31.28125 60.4453125 C-31.72082031 59.76082031 -32.16039062 59.07632813 -32.61328125 58.37109375 C-33.74133187 55.41961884 -33.54739546 54.09993819 -32.46875 51.1328125 C-29.87670898 49.46362305 -29.87670898 49.46362305 -26.46484375 48.01953125 C-25.86696548 47.76025345 -25.26908722 47.50097565 -24.65309143 47.23384094 C-22.74467697 46.41112579 -20.82621902 45.61563558 -18.90625 44.8203125 C-17.60927454 44.26673133 -16.31303936 43.71141233 -15.01757812 43.15429688 C-11.8415162 41.79650089 -8.65892883 40.45701977 -5.46875 39.1328125 C-6.63446533 38.64083374 -6.63446533 38.64083374 -7.82373047 38.13891602 C-10.70513697 36.9224803 -13.58629496 35.70545843 -16.46728516 34.48803711 C-17.71458148 33.96110878 -18.96197676 33.43441466 -20.20947266 32.90795898 C-22.00188746 32.15149434 -23.79391796 31.39411928 -25.5859375 30.63671875 C-26.66472168 30.18111572 -27.74350586 29.7255127 -28.85498047 29.25610352 C-30.41039304 28.58765094 -31.95451432 27.88993034 -33.46875 27.1328125 C-34.05180225 23.28466763 -33.1690383 21.36972615 -30.96875 18.3203125 C-30.14655256 17.24917195 -29.31670951 16.1836766 -28.46875 15.1328125 C-24.48962065 15.6837891 -22.11984047 16.80658955 -18.9296875 19.22265625 C-18.10210937 19.84205078 -17.27453125 20.46144531 -16.421875 21.09960938 C-15.57109375 21.74994141 -14.7203125 22.40027344 -13.84375 23.0703125 C-12.14349312 24.35061103 -10.44298303 25.63057337 -8.7421875 26.91015625 C-7.99372559 27.47984131 -7.24526367 28.04952637 -6.47412109 28.63647461 C-4.84296854 29.85358369 -3.16213347 31.00389019 -1.46875 32.1328125 C-1.52933594 31.58455811 -1.58992188 31.03630371 -1.65234375 30.47143555 C-4.10702419 7.97570551 -4.10702419 7.97570551 -3.46875 1.1328125 C-2.46875 0.1328125 -2.46875 0.1328125 0 0 Z " fill="#202020" transform="translate(418.46875,158.8671875)"/>
</svg>
