<?xml version="1.0" encoding="UTF-8"?>
<svg version="1.1" xmlns="http://www.w3.org/2000/svg" width="500" height="500">
<path d="M0 0 C1.38264038 0.01027222 1.38264038 0.01027222 2.79321289 0.02075195 C11.33899798 0.22219317 17.72483679 1.93550851 24.9375 6.5625 C29.80112527 11.76544796 33.11134134 17.79764693 35.625 24.4375 C36.0375 23.73625 36.45 23.035 36.875 22.3125 C42.54143797 13.0033519 48.24848099 5.23662067 58.75 1.28515625 C71.7547708 -1.55963736 87.13556047 -1.52835589 98.61328125 5.6875 C108.79606059 13.36274267 112.34419628 26.24340371 114.22653198 38.28587341 C115.51421425 48.36139563 115.8944063 58.26248207 115.8203125 68.41015625 C115.81656728 69.95527459 115.81372748 71.50039537 115.81173706 73.04551697 C115.80421909 77.04846129 115.78467753 81.05125287 115.7623291 85.05413818 C115.74161046 89.16432633 115.73268062 93.27453995 115.72265625 97.38476562 C115.7014162 105.40241267 115.66742988 113.41993717 115.625 121.4375 C116.81738281 121.55867188 118.00976562 121.67984375 119.23828125 121.8046875 C120.80473408 121.97352673 122.37113788 122.14282132 123.9375 122.3125 C124.72318359 122.39113281 125.50886719 122.46976562 126.31835938 122.55078125 C127.4543457 122.67646484 127.4543457 122.67646484 128.61328125 122.8046875 C129.30977783 122.87800293 130.00627441 122.95131836 130.72387695 123.02685547 C132.625 123.4375 132.625 123.4375 135.625 125.4375 C135.98828125 128.1875 135.98828125 128.1875 135.9375 131.4375 C135.93363281 132.51 135.92976562 133.5825 135.92578125 134.6875 C135.625 137.4375 135.625 137.4375 133.625 139.4375 C131.1446228 139.67800903 131.1446228 139.67800903 127.98193359 139.66455078 C126.80086029 139.66439972 125.61978699 139.66424866 124.40292358 139.66409302 C123.12269318 139.65377045 121.84246277 139.64344788 120.5234375 139.6328125 C118.56333237 139.62856766 118.56333237 139.62856766 116.56362915 139.62423706 C113.08817919 139.61659776 109.61289617 139.5969469 106.13751221 139.5748291 C102.59169778 139.55437696 99.0458564 139.54523671 95.5 139.53515625 C88.54159805 139.51370116 81.58330704 139.47956173 74.625 139.4375 C73.01351645 134.26215859 72.36761246 130.78139706 73.625 125.4375 C75.93899023 123.12350977 76.61104724 123.11493196 79.7578125 122.8046875 C80.56347656 122.72089844 81.36914062 122.63710938 82.19921875 122.55078125 C83.04097656 122.47214844 83.88273438 122.39351563 84.75 122.3125 C85.59949219 122.22613281 86.44898438 122.13976562 87.32421875 122.05078125 C89.42369727 121.83847443 91.52426242 121.63696397 93.625 121.4375 C93.53978503 113.38638359 93.44460758 105.33546715 93.33747292 97.28461552 C93.28799711 93.54435325 93.24167296 89.80411282 93.203125 86.0637207 C94.68660902 54.59376184 94.68660902 54.59376184 84.1875 26.375 C77.62174724 21.41065035 70.56283376 21.72732008 62.625 22.4375 C56.43665383 24.06498631 51.89068102 28.00703326 48.625 33.4375 C42.3596049 47.09640842 41.34704852 61.27744873 41.2109375 76.1484375 C41.19215968 77.49607438 41.17258178 78.84370033 41.1522522 80.1913147 C41.10162141 83.68617199 41.06163349 87.18106714 41.02410889 90.67608643 C40.98362793 94.26331399 40.93274038 97.85039369 40.8828125 101.4375 C40.78687478 108.43739092 40.70221609 115.43737539 40.625 122.4375 C41.64581665 122.4211853 41.64581665 122.4211853 42.68725586 122.40454102 C43.58323486 122.39608154 44.47921387 122.38762207 45.40234375 122.37890625 C46.7325354 122.36259155 46.7325354 122.36259155 48.08959961 122.34594727 C51.46398994 122.46779574 55.14347954 122.95597954 57.625 125.4375 C57.75014928 127.41369447 57.8007276 129.39488173 57.8125 131.375 C57.82667969 132.45652344 57.84085938 133.53804687 57.85546875 134.65234375 C57.625 137.4375 57.625 137.4375 55.625 139.4375 C53.27197266 139.69819641 53.27197266 139.69819641 50.2890625 139.7121582 C49.17450684 139.72169022 48.05995117 139.73122223 46.91162109 139.74104309 C45.70328613 139.74013168 44.49495117 139.73922028 43.25 139.73828125 C42.01459473 139.74256638 40.77918945 139.7468515 39.50634766 139.75126648 C36.21909469 139.75849381 32.93202391 139.75537486 29.64477539 139.74969482 C27.62700195 139.7499997 25.60952153 139.76004175 23.59179688 139.77368164 C19.72772304 139.79808083 15.86414099 139.80234049 12 139.80078125 C10.79166504 139.809991 9.58333008 139.81920074 8.33837891 139.82868958 C7.22382324 139.82246078 6.10926758 139.81623199 4.9609375 139.80981445 C3.97657715 139.81044388 2.9922168 139.8110733 1.97802734 139.8117218 C1.20152832 139.68822861 0.4250293 139.56473541 -0.375 139.4375 C-2.53442819 136.19835771 -2.64732978 135.18890267 -2.625 131.4375 C-2.63273437 130.138125 -2.63273437 130.138125 -2.640625 128.8125 C-2.375 126.4375 -2.375 126.4375 -0.375 123.4375 C3.91296317 122.34997311 8.09426858 122.33004356 12.5 122.375 C14.22863281 122.38853516 14.22863281 122.38853516 15.9921875 122.40234375 C17.29542969 122.41974609 17.29542969 122.41974609 18.625 122.4375 C18.53954604 114.69896776 18.44429 106.96061831 18.33747292 99.22235489 C18.28812829 95.62678911 18.2418096 92.03124439 18.203125 88.43554688 C19.82251286 55.74904223 19.82251286 55.74904223 9.1875 26.375 C2.44173716 21.27454517 -5.29033549 21.604118 -13.375 22.4375 C-20.48108968 24.94236974 -25.20329045 30.76918725 -28.5 37.375 C-34.41892539 51.63314011 -34.45422962 67.89222235 -34.69140625 83.08203125 C-34.71218735 84.21783127 -34.73296844 85.35363129 -34.75437927 86.52384949 C-34.81898691 90.09918041 -34.87834021 93.67457522 -34.9375 97.25 C-34.98076999 99.69596975 -35.02438674 102.1419334 -35.06835938 104.58789062 C-35.1745751 110.53769581 -35.27649445 116.48756243 -35.375 122.4375 C-34.48586914 122.42734863 -33.59673828 122.41719727 -32.68066406 122.40673828 C-31.51245117 122.39884277 -30.34423828 122.39094727 -29.140625 122.3828125 C-27.98336914 122.37266113 -26.82611328 122.36250977 -25.63378906 122.35205078 C-21.76868234 122.45339835 -18.93870382 122.97962117 -15.375 124.4375 C-14.07410169 127.03929663 -14.20659922 129.0344188 -14.1875 131.9375 C-14.17332031 132.9171875 -14.15914063 133.896875 -14.14453125 134.90625 C-14.375 137.4375 -14.375 137.4375 -16.375 139.4375 C-18.95581055 139.69819641 -18.95581055 139.69819641 -22.26171875 139.7121582 C-23.49639893 139.72169022 -24.7310791 139.73122223 -26.00317383 139.74104309 C-27.35628284 139.7407817 -28.70939187 139.73984481 -30.0625 139.73828125 C-31.44490692 139.74216659 -32.82731264 139.74650092 -34.2097168 139.75126648 C-37.10827503 139.75873333 -40.00671148 139.75843386 -42.90527344 139.75317383 C-46.6246998 139.74737462 -50.34362892 139.76431817 -54.06297302 139.7875185 C-56.91795784 139.80222974 -59.77282213 139.80313122 -62.62783813 139.80000877 C-63.99940985 139.80052318 -65.37098811 139.80578328 -66.74252319 139.81582069 C-68.65773745 139.82811757 -70.57305189 139.81947652 -72.48828125 139.80981445 C-73.57923096 139.81044388 -74.67018066 139.8110733 -75.79418945 139.8117218 C-76.64585693 139.68822861 -77.49752441 139.56473541 -78.375 139.4375 C-80.52053377 136.21919935 -80.67083868 135.16963493 -80.6875 131.4375 C-80.70425781 130.57125 -80.72101563 129.705 -80.73828125 128.8125 C-80.30460061 125.97725454 -79.65434651 125.126898 -77.375 123.4375 C-70.73074621 121.8486567 -64.2928527 122.4375 -57.375 122.4375 C-57.375 89.4375 -57.375 56.4375 -57.375 22.4375 C-63.645 22.1075 -69.915 21.7775 -76.375 21.4375 C-80.375 18.4375 -80.375 18.4375 -80.8359375 15.84375 C-80.80757812 14.8846875 -80.77921875 13.925625 -80.75 12.9375 C-80.73710938 11.9784375 -80.72421875 11.019375 -80.7109375 10.03125 C-80.375 7.4375 -80.375 7.4375 -78.375 4.4375 C-75.35985888 4.10874927 -72.55486194 3.96946118 -69.53515625 3.96875 C-68.65725937 3.96113647 -67.77936249 3.95352295 -66.87486267 3.94567871 C-65.01629483 3.93486294 -63.15766614 3.93203059 -61.29907227 3.93652344 C-58.45160711 3.93749519 -55.60684086 3.89590563 -52.75976562 3.8515625 C-50.9557348 3.84635528 -49.15169459 3.84366731 -47.34765625 3.84375 C-46.49446304 3.82735474 -45.64126984 3.81095947 -44.76222229 3.79406738 C-42.52165614 3.82032119 -40.54704025 3.88649876 -38.375 4.4375 C-35.72292466 7.55328959 -34.98839473 10.21801065 -34.6875 14.25 C-34.58888672 15.43529297 -34.58888672 15.43529297 -34.48828125 16.64453125 C-34.45089844 17.23621094 -34.41351563 17.82789063 -34.375 18.4375 C-33.75625 17.56738281 -33.75625 17.56738281 -33.125 16.6796875 C-24.27949973 4.71456883 -14.90354605 -0.17008521 0 0 Z " fill="#F2F2F5" transform="translate(118.375,191.5625)"/>
<path d="M0 0 C0.78153946 -0.00761353 1.56307892 -0.01522705 2.36830139 -0.02307129 C4.01820691 -0.03385721 5.66818061 -0.0367315 7.31811523 -0.03222656 C9.83628721 -0.03125439 12.35140862 -0.0728829 14.86914062 -0.1171875 C16.47525409 -0.1223951 18.0813781 -0.12508268 19.6875 -0.125 C20.81115211 -0.1495929 20.81115211 -0.1495929 21.95750427 -0.17468262 C25.68937127 -0.12559623 27.63088408 0.25233066 30.60699463 2.55863953 C33.47780959 6.18599621 33.54548002 8.05870766 33.56958008 12.64575195 C33.58006378 13.34873917 33.59054749 14.05172638 33.60134888 14.77601624 C33.63002332 17.08680777 33.62381717 19.39609423 33.6171875 21.70703125 C33.63030732 23.31416189 33.64561242 24.92127606 33.66300964 26.52836609 C33.7028401 30.74851184 33.71304876 34.96822606 33.71704102 39.1885376 C33.72637623 43.49887161 33.76379215 47.80895246 33.79882812 52.11914062 C33.86338398 60.5690151 33.89664035 69.01864046 33.91015625 77.46875 C34.52499374 76.77515381 35.13983124 76.08155762 35.77330017 75.36694336 C36.58150711 74.46081299 37.38971405 73.55468262 38.22241211 72.62109375 C39.0228746 71.72124756 39.8233371 70.82140137 40.64805603 69.89428711 C43.06236704 67.30554197 45.45143656 65.31376966 48.47265625 63.46875 C49.31957031 62.9325 50.16648437 62.39625 51.0390625 61.84375 C58.0118428 58.50440487 64.68569947 58.12871574 72.28515625 58.15625 C73.166875 58.14013672 74.04859375 58.12402344 74.95703125 58.10742188 C85.77270611 58.09949249 94.0144121 61.5223117 102.91015625 67.46875 C103.79703125 68.04625 104.68390625 68.62375 105.59765625 69.21875 C121.42410589 84.61745776 123.78040214 107.66286281 124.26171875 128.60180664 C124.42837003 150.32028795 122.00168401 171.95218776 106.2265625 188.203125 C95.39014556 198.31377729 81.16969978 199.04615836 67.1015625 198.78515625 C54.38664504 198.23453743 44.20411779 192.89815698 34.91015625 184.46875 C33.88924082 183.15136264 32.88482554 181.82071063 31.91015625 180.46875 C31.80058594 181.36078125 31.69101562 182.2528125 31.578125 183.171875 C31.34029297 184.92757812 31.34029297 184.92757812 31.09765625 186.71875 C30.94683594 187.87890625 30.79601562 189.0390625 30.640625 190.234375 C29.88904552 193.56222426 29.46811745 195.22167108 26.91015625 197.46875 C23.87890625 198 23.87890625 198 20.41015625 197.96875 C18.693125 197.98421875 18.693125 197.98421875 16.94140625 198 C13.91015625 197.46875 13.91015625 197.46875 12.24325085 195.87846756 C10.42518088 192.59210278 10.54128642 190.13252299 10.5493927 186.38201904 C10.54682943 185.66806323 10.54426615 184.95410742 10.5416252 184.21851659 C10.53668364 181.82611206 10.55318582 179.43433858 10.56958008 177.04199219 C10.57042627 175.32713842 10.56995136 173.61228356 10.56825256 171.89743042 C10.56739089 167.24069599 10.58504458 162.5841928 10.60597444 157.92751217 C10.62471247 153.06148891 10.62648941 148.19546051 10.63005066 143.32940674 C10.63937957 134.11425406 10.66400483 124.899208 10.69409913 115.6841023 C10.72761679 105.19329308 10.74412252 94.70247881 10.75918543 84.21162939 C10.79055363 62.63061006 10.8433306 41.04968674 10.91015625 19.46875 C9.28207031 19.50355469 9.28207031 19.50355469 7.62109375 19.5390625 C6.17578818 19.5578327 4.7304751 19.57603156 3.28515625 19.59375 C2.57230469 19.61050781 1.85945312 19.62726563 1.125 19.64453125 C-3.34230057 19.68551566 -6.8956313 19.21096132 -11.08984375 17.46875 C-12.96387875 15.594715 -12.34973453 12.60237936 -12.40234375 10.09375 C-12.43972656 8.93101562 -12.47710937 7.76828125 -12.515625 6.5703125 C-12.08984375 3.46875 -12.08984375 3.46875 -10.56884766 1.80419922 C-7.10664433 -0.06090342 -3.83934968 0.00102953 0 0 Z M43.91015625 88.46875 C32.49704862 104.41353272 30.84836415 124.88850522 33.21484375 143.91894531 C35.27713305 156.01385117 39.96943233 165.93408836 49.48828125 173.83984375 C56.89195623 178.81941224 65.31189279 179.47995466 73.89453125 177.9296875 C83.23998959 175.8141733 90.55703274 172.76997052 95.91015625 164.46875 C104.92339424 146.53092882 104.01421488 120.7544325 98.875 101.61328125 C95.71144045 92.7736245 92.19190328 86.96377709 83.78515625 82.59375 C70.99116398 76.57539227 53.71593671 77.30105559 43.91015625 88.46875 Z " fill="#F2F2F5" transform="translate(253.08984375,133.53125)"/>
<path d="M0 0 C1.1859375 0.00257813 2.371875 0.00515625 3.59375 0.0078125 C4.7796875 0.00523437 5.965625 0.00265625 7.1875 0 C10.09375 0.1328125 10.09375 0.1328125 11.09375 1.1328125 C11.31189638 7.88853335 10.78544039 14.47937267 10.09375 21.1953125 C9.99835938 22.15630859 9.90296875 23.11730469 9.8046875 24.10742188 C9.5716308 26.44964173 9.33458651 28.79138205 9.09375 31.1328125 C9.61283936 30.72442139 10.13192871 30.31603027 10.66674805 29.89526367 C13.03594722 28.03399543 15.40855634 26.17712365 17.78125 24.3203125 C19.00618164 23.35641602 19.00618164 23.35641602 20.25585938 22.37304688 C21.05185547 21.75107422 21.84785156 21.12910156 22.66796875 20.48828125 C23.39588623 19.91746826 24.12380371 19.34665527 24.8737793 18.75854492 C31.23327263 14.1013508 31.23327263 14.1013508 34.23046875 14.2109375 C36.61848178 15.39242823 37.50361805 16.62843123 38.90625 18.8828125 C39.34582031 19.55828125 39.78539062 20.23375 40.23828125 20.9296875 C41.37259042 23.85092208 41.15262765 25.18982199 40.09375 28.1328125 C37.59350586 29.71020508 37.59350586 29.71020508 34.30859375 31.02734375 C33.13876953 31.50751953 31.96894531 31.98769531 30.76367188 32.48242188 C29.5196977 32.97047654 28.27555477 33.45810129 27.03125 33.9453125 C25.78247569 34.45068015 24.5344177 34.95782174 23.28710938 35.46679688 C20.22926661 36.70646286 17.16523472 37.92743424 14.09375 39.1328125 C18.84719165 41.57320373 23.58893982 43.98316972 28.53515625 46.01171875 C29.22029297 46.29337891 29.90542969 46.57503906 30.61132812 46.86523438 C32.00618202 47.43143581 33.40483147 47.98835393 34.80664062 48.53710938 C39.80407833 50.61738249 39.80407833 50.61738249 41.19140625 53.0859375 C41.06686181 55.69638897 40.35458712 57.10878201 38.96875 59.3203125 C38.55367188 60.01511719 38.13859375 60.70992187 37.7109375 61.42578125 C36.09375 63.1328125 36.09375 63.1328125 33.734375 64.0859375 C30.11876489 64.15011993 28.78552331 62.91930217 25.96875 60.6953125 C25.02128906 59.96441406 24.07382812 59.23351562 23.09765625 58.48046875 C22.10636719 57.70574219 21.11507812 56.93101562 20.09375 56.1328125 C18.03687164 54.62511304 15.97462005 53.1247078 13.90625 51.6328125 C12.30208333 50.46614583 10.69791667 49.29947917 9.09375 48.1328125 C9.15433594 48.72707031 9.21492188 49.32132813 9.27734375 49.93359375 C9.55358621 52.66626916 9.82370488 55.39951799 10.09375 58.1328125 C10.18914062 59.06738281 10.28453125 60.00195312 10.3828125 60.96484375 C10.91261058 66.37635271 11.39026705 71.69666667 11.09375 77.1328125 C9.09375 79.1328125 9.09375 79.1328125 6.5625 79.3984375 C5.5828125 79.39328125 4.603125 79.388125 3.59375 79.3828125 C2.6140625 79.38796875 1.634375 79.393125 0.625 79.3984375 C-1.90625 79.1328125 -1.90625 79.1328125 -3.90625 77.1328125 C-3.91525756 74.64372294 -3.80895476 72.2915853 -3.59375 69.8203125 C-3.54033447 69.11132812 -3.48691895 68.40234375 -3.43188477 67.671875 C-3.26585929 65.49135828 -3.08609737 63.3122266 -2.90625 61.1328125 C-2.71831969 58.63284481 -2.53077138 56.13284835 -2.34375 53.6328125 C-2.19912272 51.79938363 -2.05378471 49.9660097 -1.90625 48.1328125 C-2.65648437 48.70128906 -3.40671875 49.26976562 -4.1796875 49.85546875 C-6.87090094 51.88574186 -9.57088229 53.90308706 -12.27685547 55.91357422 C-13.77894657 57.03755429 -15.26712193 58.18006786 -16.75390625 59.32421875 C-17.60855469 59.96230469 -18.46320313 60.60039062 -19.34375 61.2578125 C-20.10558594 61.83789062 -20.86742187 62.41796875 -21.65234375 63.015625 C-23.90625 64.1328125 -23.90625 64.1328125 -26.51171875 64.05078125 C-29.40148744 62.94295801 -30.20872412 61.95258407 -31.78125 59.3203125 C-32.21179688 58.63324219 -32.64234375 57.94617188 -33.0859375 57.23828125 C-33.90625 55.1328125 -33.90625 55.1328125 -33.80322266 53.17382812 C-32.44483892 50.08289507 -30.43876702 49.65346232 -27.375 48.37109375 C-26.25480469 47.89220703 -25.13460938 47.41332031 -23.98046875 46.91992188 C-22.80097656 46.43330078 -21.62148438 45.94667969 -20.40625 45.4453125 C-18.08266509 44.46382008 -15.75971231 43.48082935 -13.4375 42.49609375 C-11.88385742 41.85087769 -11.88385742 41.85087769 -10.29882812 41.19262695 C-7.99913664 40.34574482 -7.99913664 40.34574482 -6.90625 39.1328125 C-7.68863037 38.82053711 -8.47101074 38.50826172 -9.27709961 38.18652344 C-12.17643983 37.02083379 -15.06976459 35.84158518 -17.9597168 34.65283203 C-19.21170895 34.14113276 -20.46595082 33.63490247 -21.72241211 33.13427734 C-23.52779483 32.4138362 -25.32460838 31.67203683 -27.12109375 30.9296875 C-28.20511475 30.48979492 -29.28913574 30.04990234 -30.40600586 29.59667969 C-32.90625 28.1328125 -32.90625 28.1328125 -33.82128906 26.10327148 C-33.93950341 23.36158178 -33.05798827 21.8213804 -31.71875 19.4453125 C-31.29207031 18.65769531 -30.86539062 17.87007812 -30.42578125 17.05859375 C-28.90625 15.1328125 -28.90625 15.1328125 -27.109375 14.1171875 C-23.57855751 14.14222876 -21.65234285 16.01932307 -18.84375 18.0703125 C-18.27954346 18.47693115 -17.71533691 18.8835498 -17.1340332 19.30249023 C-15.3829544 20.56804376 -13.64472672 21.85002443 -11.90625 23.1328125 C-10.80829912 23.92847539 -9.70937733 24.72280065 -8.609375 25.515625 C-6.03363051 27.37736778 -3.46648701 29.24983258 -0.90625 31.1328125 C-0.99712891 30.50826172 -1.08800781 29.88371094 -1.18164062 29.24023438 C-1.59564925 26.37189766 -2.00100296 23.50239965 -2.40625 20.6328125 C-2.54933594 19.65054688 -2.69242187 18.66828125 -2.83984375 17.65625 C-3.61871775 12.09286427 -4.1688205 6.75182112 -3.90625 1.1328125 C-2.90625 0.1328125 -2.90625 0.1328125 0 0 Z " fill="#F2F2F5" transform="translate(417.90625,158.8671875)"/>
</svg>
