<?xml version="1.0" encoding="UTF-8"?>
<svg version="1.1" xmlns="http://www.w3.org/2000/svg" width="500" height="500">
<path d="M0 0 C165 0 330 0 500 0 C500 165 500 330 500 500 C335 500 170 500 0 500 C0 335 0 170 0 0 Z " fill="#1E1E20" transform="translate(0,0)"/>
<path d="M0 0 C1.13901512 -0.00574036 1.13901512 -0.00574036 2.30104065 -0.01159668 C3.90391366 -0.01431343 5.50683118 -0.00696863 7.10961914 0.00976562 C9.55521226 0.03115211 11.99785825 0.00997461 14.44335938 -0.015625 C16.0039127 -0.0129811 17.5644642 -0.00785482 19.125 0 C20.21584145 -0.01214539 20.21584145 -0.01214539 21.32872009 -0.02453613 C26.20063 0.06482201 28.71075707 1.06413716 32.12890625 4.53125 C33.59541581 7.46426912 33.29429099 10.09279861 33.33422852 13.36767578 C33.34412811 14.07022491 33.35402771 14.77277405 33.36422729 15.49661255 C33.39586305 17.82322803 33.42060784 20.14986394 33.4453125 22.4765625 C33.46588024 24.08796729 33.48687667 25.69936666 33.50828552 27.3107605 C33.56352479 31.55547706 33.61292586 35.80024247 33.66113281 40.04504395 C33.71133431 44.37512568 33.76702742 48.70513635 33.82226562 53.03515625 C33.92986988 61.53379411 34.03130979 70.03249135 34.12890625 78.53125 C34.60843246 77.97935501 35.08795868 77.42746002 35.58201599 76.85884094 C36.21164749 76.13625595 36.84127899 75.41367096 37.48999023 74.66918945 C38.11389145 73.95229446 38.73779266 73.23539948 39.38059998 72.4967804 C46.62849528 64.34834627 54.7995576 59.04400279 65.92578125 58.265625 C81.4917866 58.32715071 95.47262529 60.24633987 107.32421875 71.5078125 C121.51759971 87.42160327 123.49871912 107.60795605 123.44458008 127.97827148 C123.44141502 130.46187099 123.46499054 132.94428053 123.49023438 135.42773438 C123.52954169 145.21294396 122.75315821 154.0483196 120.12890625 163.53125 C119.92048096 164.28817139 119.71205566 165.04509277 119.49731445 165.82495117 C116.08063556 177.07228871 109.97991176 186.04838543 100.06640625 192.53515625 C91.25165725 197.2011267 82.65988142 198.91368168 72.75390625 198.84375 C71.92391113 198.83883545 71.09391602 198.8339209 70.23876953 198.82885742 C55.48129283 198.54788613 44.45256667 192.96404002 34.12890625 182.53125 C33.46890625 181.54125 32.80890625 180.55125 32.12890625 179.53125 C30.86428197 182.06049855 30.9858531 184.02111704 30.87890625 186.84375 C30.5343588 190.64875228 30.21524856 192.38920297 28.19140625 195.71875 C24.45519676 197.92997603 21.80327511 198.12948777 17.53125 198.1953125 C14.03337765 197.22842096 13.07882572 195.54850237 11.12890625 192.53125 C10.63671494 189.19858837 10.63671494 189.19858837 10.64788818 185.32426453 C10.64447048 184.60945429 10.64105278 183.89464406 10.63753152 183.15817291 C10.63095536 180.76869311 10.65292284 178.38034267 10.67480469 175.9909668 C10.67593323 174.27596564 10.67529917 172.56096256 10.67303467 170.84596252 C10.67188685 166.19334502 10.69540711 161.54113989 10.7233305 156.88861823 C10.74833285 152.02527948 10.75068523 147.16193131 10.75543213 142.29853821 C10.76786533 133.09046204 10.80069163 123.88257579 10.84083009 114.67458326 C10.88553705 104.19101765 10.90753214 93.70744298 10.92761183 83.22380579 C10.96942392 61.65951451 11.03978272 40.09539422 11.12890625 18.53125 C10.53875732 18.55219727 9.9486084 18.57314453 9.34057617 18.59472656 C6.66602626 18.67788683 3.9917481 18.72990691 1.31640625 18.78125 C0.38763672 18.81476563 -0.54113281 18.84828125 -1.49804688 18.8828125 C-2.83706055 18.90214844 -2.83706055 18.90214844 -4.203125 18.921875 C-5.02530518 18.94282227 -5.84748535 18.96376953 -6.69458008 18.98535156 C-8.87109375 18.53125 -8.87109375 18.53125 -10.63574219 16.65917969 C-12.11444003 14.11207881 -12.30412387 12.4634918 -12.30859375 9.53125 C-12.32792969 8.685625 -12.34726563 7.84 -12.3671875 6.96875 C-11.00867432 0.2938506 -5.87793564 -0.06526305 0 0 Z " fill="#EDEDF0" transform="translate(252.87109375,133.46875)"/>
<path d="M0 0 C5.87818452 4.52764118 9.06071826 10.76154133 11.69921875 17.59765625 C11.69921875 18.58765625 11.69921875 19.57765625 11.69921875 20.59765625 C12.35921875 20.59765625 13.01921875 20.59765625 13.69921875 20.59765625 C13.80234375 20.04722656 13.90546875 19.49679688 14.01171875 18.9296875 C16.60534394 10.13199298 23.0536728 3.29475293 30.69921875 -1.40234375 C31.37855469 -1.83546875 32.05789062 -2.26859375 32.7578125 -2.71484375 C42.48378528 -7.70785651 57.70454459 -7.14818111 67.94921875 -3.90234375 C78.20553569 0.77882785 83.6213434 8.32404127 87.69921875 18.59765625 C94.93126808 38.03011402 92.9524844 60.42239842 92.83654785 80.81939697 C92.81580532 84.86264944 92.80689444 88.90592801 92.796875 92.94921875 C92.77565387 100.83210157 92.74168169 108.71485931 92.69921875 116.59765625 C93.62541771 116.59126633 93.62541771 116.59126633 94.57032776 116.58474731 C95.38057907 116.58143402 96.19083038 116.57812073 97.02563477 116.57470703 C97.82872574 116.57044708 98.63181671 116.56618713 99.45924377 116.5617981 C101.94361943 116.60156869 104.21856996 116.90419451 106.63671875 117.47265625 C107.36761719 117.63507813 108.09851563 117.7975 108.8515625 117.96484375 C110.69921875 118.59765625 110.69921875 118.59765625 112.69921875 120.59765625 C113 122.875 113 122.875 113.01171875 125.53515625 C113.02847656 126.41042969 113.04523438 127.28570312 113.0625 128.1875 C112.61805916 131.13610211 112.05887672 131.82026693 109.69921875 133.59765625 C107.18797302 133.97860718 107.18797302 133.97860718 104.15795898 133.98583984 C103.0234581 133.99529633 101.88895721 134.00475281 100.72007751 134.01449585 C99.49503006 134.00842316 98.2699826 134.00235046 97.0078125 133.99609375 C95.12353294 134.00039902 95.12353294 134.00039902 93.20118713 134.00479126 C90.54372233 134.00683438 87.88708331 134.00279154 85.22973633 133.98876953 C81.8208052 133.9716597 78.4125817 133.98153076 75.00367641 133.99948692 C71.75502949 134.01292007 68.50646864 134.00352205 65.2578125 133.99609375 C64.03074081 134.00216644 62.80366913 134.00823914 61.53941345 134.01449585 C60.40806473 134.00503937 59.276716 133.99558289 58.11108398 133.98583984 C57.11197495 133.98345306 56.11286591 133.98106628 55.08348083 133.97860718 C54.29667435 133.85289337 53.50986786 133.72717957 52.69921875 133.59765625 C50.45687866 130.23414612 50.4282366 128.97455569 50.44921875 125.03515625 C50.44148438 123.57916016 50.44148438 123.57916016 50.43359375 122.09375 C50.69921875 119.59765625 50.69921875 119.59765625 52.69921875 117.59765625 C54.57861328 117.27880859 54.57861328 117.27880859 56.83203125 117.18359375 C57.63769531 117.14492188 58.44335938 117.10625 59.2734375 117.06640625 C60.11519531 117.03546875 60.95695313 117.00453125 61.82421875 116.97265625 C62.67371094 116.93398438 63.52320313 116.8953125 64.3984375 116.85546875 C66.49833559 116.76109131 68.59874766 116.67828039 70.69921875 116.59765625 C70.66086948 107.24260656 70.60109215 97.88799313 70.51531601 88.53325748 C70.4761138 84.18760417 70.44379385 79.84214523 70.42822266 75.49633789 C70.41287367 71.28797901 70.37811519 67.08015558 70.33090973 62.87203789 C70.31628107 61.28126161 70.30818863 59.69040881 70.3073349 58.09956551 C70.31286743 38.65958873 70.31286743 38.65958873 62.88671875 21.22265625 C57.50587986 16.20321698 51.70865077 15.01767497 44.54296875 15.25390625 C38.20922124 16.01952408 32.72010314 18.04773698 28.32421875 22.78515625 C22.0563964 31.20699079 20.57029812 40.35314123 19.0246582 50.4987793 C18.7730832 52.12127762 18.48907558 53.73876654 18.19171143 55.35350037 C17.71673561 58.48226892 17.54221929 61.44133553 17.49389648 64.60302734 C17.47395126 65.76377777 17.45400604 66.9245282 17.43345642 68.12045288 C17.41674393 69.35816437 17.40003143 70.59587585 17.3828125 71.87109375 C17.35164085 73.78941513 17.35164085 73.78941513 17.31983948 75.74649048 C17.26566655 79.12970829 17.21537649 82.5129379 17.16699219 85.89624023 C17.11655943 89.35535769 17.06098758 92.81439226 17.00585938 96.2734375 C16.8989274 103.04811086 16.79711675 109.82284664 16.69921875 116.59765625 C17.74722656 116.63503906 18.79523438 116.67242187 19.875 116.7109375 C21.2539418 116.7766014 22.63284646 116.8430486 24.01171875 116.91015625 C24.70201172 116.93271484 25.39230469 116.95527344 26.10351562 116.97851562 C31.21164334 117.24996203 31.21164334 117.24996203 33.65478516 118.9921875 C35.11989452 121.24430511 35.09803631 122.93008922 35.07421875 125.59765625 C35.08195313 126.46390625 35.0896875 127.33015625 35.09765625 128.22265625 C34.61137046 131.12130093 34.01583362 131.83236911 31.69921875 133.59765625 C29.30186462 133.97187805 29.30186462 133.97187805 26.43334961 133.9699707 C24.82169167 133.97931389 24.82169167 133.97931389 23.17747498 133.98884583 C21.4383358 133.9750312 21.4383358 133.9750312 19.6640625 133.9609375 C17.87966515 133.96168526 17.87966515 133.96168526 16.05921936 133.96244812 C13.54328746 133.96010634 11.02735327 133.95037177 8.51147461 133.93383789 C4.64871405 133.91022956 0.78664255 133.9132784 -3.07617188 133.91992188 C-5.51693122 133.91434591 -7.95768765 133.90723655 -10.3984375 133.8984375 C-11.55988785 133.89934891 -12.7213382 133.90026031 -13.91798401 133.90119934 C-14.98927048 133.89166733 -16.06055695 133.88213531 -17.16430664 133.87231445 C-18.110121 133.86770706 -19.05593536 133.86309967 -20.03041077 133.85835266 C-22.30078125 133.59765625 -22.30078125 133.59765625 -24.30078125 131.59765625 C-24.56640625 128.84765625 -24.56640625 128.84765625 -24.55078125 125.59765625 C-24.55851562 123.98890625 -24.55851562 123.98890625 -24.56640625 122.34765625 C-24.30078125 119.59765625 -24.30078125 119.59765625 -22.30078125 117.59765625 C-20.42138672 117.27880859 -20.42138672 117.27880859 -18.16796875 117.18359375 C-17.36230469 117.14492188 -16.55664062 117.10625 -15.7265625 117.06640625 C-14.88480469 117.03546875 -14.04304688 117.00453125 -13.17578125 116.97265625 C-12.32628906 116.93398438 -11.47679687 116.8953125 -10.6015625 116.85546875 C-8.50166441 116.76109131 -6.40125234 116.67828039 -4.30078125 116.59765625 C-4.40903598 108.21677293 -4.52180976 99.83596703 -4.64012051 91.45522022 C-4.69493863 87.56237572 -4.74828553 83.66952339 -4.7980957 79.77661133 C-4.84635489 76.00937563 -4.89870638 72.24221573 -4.953722 68.47507286 C-4.97387094 67.04842745 -4.99262351 65.62176152 -5.00985527 64.1950779 C-4.42533541 41.1079544 -4.42533541 41.1079544 -13.30078125 20.59765625 C-19.44337908 15.19961573 -27.57716258 15.9585873 -35.31933594 16.36669922 C-40.78585907 17.00387651 -43.8855726 20.14313625 -47.55078125 23.91015625 C-56.8703865 38.22240718 -57.39698621 54.08692528 -57.6171875 70.69921875 C-57.6379686 72.01683197 -57.65874969 73.33444519 -57.68016052 74.69198608 C-57.73482006 78.16061694 -57.78447179 81.62930124 -57.83300781 85.09802246 C-57.88363815 88.65133302 -57.93910528 92.20456792 -57.99414062 95.7578125 C-58.10103351 102.70436126 -58.20262532 109.65097868 -58.30078125 116.59765625 C-57.03621094 116.63503906 -55.77164063 116.67242187 -54.46875 116.7109375 C-52.80856395 116.77659458 -51.14840903 116.84304201 -49.48828125 116.91015625 C-48.65490234 116.93271484 -47.82152344 116.95527344 -46.96289062 116.97851562 C-45.75922852 117.03168945 -45.75922852 117.03168945 -44.53125 117.0859375 C-43.42366333 117.12521362 -43.42366333 117.12521362 -42.29370117 117.1652832 C-39.78429395 117.70971052 -38.86462316 118.59219483 -37.30078125 120.59765625 C-36.90234375 122.97265625 -36.90234375 122.97265625 -36.92578125 125.59765625 C-36.91417969 126.89703125 -36.91417969 126.89703125 -36.90234375 128.22265625 C-37.39109374 131.13598949 -37.9541307 131.83948047 -40.30078125 133.59765625 C-42.91918945 133.9853363 -42.91918945 133.9853363 -46.1015625 134.00170898 C-47.29289795 134.01439316 -48.4842334 134.02707733 -49.71166992 134.04014587 C-50.99920166 134.03721024 -52.2867334 134.0342746 -53.61328125 134.03125 C-54.9470242 134.03581082 -56.28076479 134.0411161 -57.61450195 134.0471344 C-60.40878858 134.05606795 -63.20278943 134.05363951 -65.99707031 134.04370117 C-69.57866426 134.03220409 -73.15927337 134.05243118 -76.74073792 134.08161831 C-79.49457059 134.09995976 -82.24816626 134.09969223 -85.00204468 134.09398079 C-86.96469299 134.09375274 -88.92731895 134.1106685 -90.88989258 134.12779236 C-92.08122803 134.11841141 -93.27256348 134.10903046 -94.5 134.09936523 C-95.55018311 134.09919907 -96.60036621 134.0990329 -97.68237305 134.09886169 C-100.30078125 133.59765625 -100.30078125 133.59765625 -102.13842773 131.69129944 C-104.01070773 128.31892932 -103.83193797 125.34654499 -103.30078125 121.59765625 C-102.36328125 119.16015625 -102.36328125 119.16015625 -100.30078125 117.59765625 C-93.59530415 115.87717199 -86.03784379 116.59765625 -79.30078125 116.59765625 C-79.30078125 83.26765625 -79.30078125 49.93765625 -79.30078125 15.59765625 C-85.90078125 15.59765625 -92.50078125 15.59765625 -99.30078125 15.59765625 C-100.29078125 14.93765625 -101.28078125 14.27765625 -102.30078125 13.59765625 C-102.6640625 10.62890625 -102.6640625 10.62890625 -102.61328125 7.09765625 C-102.60941406 5.93234375 -102.60554688 4.76703125 -102.6015625 3.56640625 C-102.30078125 0.59765625 -102.30078125 0.59765625 -100.30078125 -1.40234375 C-97.46712517 -1.61454258 -94.73370104 -1.70630944 -91.8984375 -1.703125 C-91.06493271 -1.70741013 -90.23142792 -1.71169525 -89.37266541 -1.71611023 C-87.60823475 -1.7218581 -85.8437804 -1.72235043 -84.0793457 -1.71801758 C-81.37735592 -1.7148602 -78.67646347 -1.7383012 -75.97460938 -1.76367188 C-74.26172013 -1.76594506 -72.54882794 -1.76664828 -70.8359375 -1.765625 C-70.02649185 -1.77483475 -69.2170462 -1.78404449 -68.3830719 -1.79353333 C-62.735452 -1.74688496 -62.735452 -1.74688496 -60.6091156 -0.06144714 C-58.67864471 2.38658979 -58.54053198 4.72867029 -58.11328125 7.78515625 C-57.95472656 8.87183594 -57.79617187 9.95851562 -57.6328125 11.078125 C-57.52324219 11.90957031 -57.41367188 12.74101562 -57.30078125 13.59765625 C-56.96046875 13.10136719 -56.62015625 12.60507813 -56.26953125 12.09375 C-50.42281058 3.89901119 -44.077083 -2.45826831 -34.09765625 -4.953125 C-22.44325352 -6.82499136 -10.24949693 -6.24714669 0 0 Z " fill="#EFEFF2" transform="translate(141.30078125,197.40234375)"/>
<path d="M0 0 C7.50832934 5.06939923 11.31424773 14.06888196 12.984375 22.67578125 C14.41394287 30.71264167 14.58626454 38.71442384 14.609375 46.86328125 C14.61747192 48.61439209 14.61747192 48.61439209 14.62573242 50.40087891 C14.51961107 63.44365444 13.26503021 76.09897577 4.6640625 86.53125 C-3.1136727 93.8567913 -14.21558835 94.89182904 -24.421875 94.75390625 C-32.43672426 94.25774891 -37.79205261 91.5105349 -43.625 86.00390625 C-47.28779617 81.68015438 -49.51908321 76.74235599 -51.703125 71.55078125 C-52.06535156 70.77089844 -52.42757813 69.99101562 -52.80078125 69.1875 C-58.43213885 52.73223428 -56.79880942 28.10956121 -49.27734375 12.61328125 C-44.86359135 4.76661031 -39.25049263 -0.86904776 -31.015625 -4.69921875 C-20.25628669 -7.13529535 -9.65155031 -5.08055211 0 0 Z " fill="#1F1F21" transform="translate(340.703125,217.44921875)"/>
<path d="M0 0 C0.9796875 0.00515625 1.959375 0.0103125 2.96875 0.015625 C3.9484375 0.01046875 4.928125 0.0053125 5.9375 0 C8.46875 0.265625 8.46875 0.265625 10.46875 2.265625 C10.48046875 5.09375 10.48046875 5.09375 10.15625 8.515625 C10.05699219 9.63453125 9.95773437 10.7534375 9.85546875 11.90625 C9.60724962 14.06249698 9.30318024 16.21345189 8.9296875 18.3515625 C8.48310019 21.17490258 8.36768372 23.78672002 8.40625 26.640625 C8.41527344 27.51460937 8.42429687 28.38859375 8.43359375 29.2890625 C8.44519531 29.94132812 8.45679688 30.59359375 8.46875 31.265625 C9.99341132 30.1820876 11.51785282 29.09823973 13.04125977 28.01293945 C14.32958629 27.09569013 15.61914567 26.18017006 16.90991211 25.26635742 C20.37676925 22.80206011 23.73291181 20.26636595 27.03125 17.578125 C29.41313561 15.79551978 30.18309254 15.29159386 33.21875 15.015625 C36.49954623 16.83828957 37.75456116 18.96422427 39.46875 22.265625 C39.57421875 24.96875 39.57421875 24.96875 39.46875 27.265625 C30.26034357 31.64466482 20.95865565 35.54591823 11.46875 39.265625 C12.28142334 39.60295654 13.09409668 39.94028809 13.93139648 40.2878418 C16.94418892 41.54919641 19.94899097 42.82756153 22.94946289 44.11791992 C24.24925957 44.67270526 25.55200998 45.22062297 26.85766602 45.76147461 C28.73493462 46.54051609 30.60016817 47.34370257 32.46484375 48.15234375 C33.59075928 48.62889404 34.7166748 49.10544434 35.87670898 49.59643555 C38.46875 51.265625 38.46875 51.265625 39.40625 53.8203125 C39.48375349 56.85263674 38.74777021 58.10801056 37.03125 60.578125 C36.32162109 61.62419922 36.32162109 61.62419922 35.59765625 62.69140625 C35.22511719 63.21089844 34.85257812 63.73039062 34.46875 64.265625 C30.68385114 63.72222401 28.42271387 62.80388838 25.4375 60.4296875 C24.34501953 59.57503906 24.34501953 59.57503906 23.23046875 58.703125 C22.48410156 58.105 21.73773438 57.506875 20.96875 56.890625 C14.48164505 51.69969317 14.48164505 51.69969317 7.46875 47.265625 C7.55962891 47.92570557 7.65050781 48.58578613 7.74414062 49.26586914 C8.15716589 52.28598404 8.56301214 55.3070228 8.96875 58.328125 C9.11183594 59.36646484 9.25492187 60.40480469 9.40234375 61.47460938 C10.84593777 72.30156453 10.84593777 72.30156453 10.46875 77.265625 C8.46875 79.265625 8.46875 79.265625 5.90234375 79.49609375 C4.91363281 79.48191406 3.92492187 79.46773438 2.90625 79.453125 C1.91496094 79.44667969 0.92367187 79.44023437 -0.09765625 79.43359375 C-2.53125 79.265625 -2.53125 79.265625 -3.53125 78.265625 C-4.32402775 68.23606467 -3.73559295 55.87865386 -0.53125 46.265625 C-3.59501157 48.51391109 -6.65703112 50.76455817 -9.71875 53.015625 C-10.58306641 53.64984375 -11.44738281 54.2840625 -12.33789062 54.9375 C-15.7790755 57.46894634 -19.19098959 59.98432506 -22.484375 62.70703125 C-24.53125 64.265625 -24.53125 64.265625 -27.09375 64.453125 C-30.21250314 62.93373244 -31.2240377 61.19257141 -32.9296875 58.25 C-33.76629522 55.49028101 -33.47321749 53.98998868 -32.53125 51.265625 C-30.13867188 49.70410156 -30.13867188 49.70410156 -27 48.40625 C-25.87980469 47.93058594 -24.75960938 47.45492187 -23.60546875 46.96484375 C-22.42597656 46.48660156 -21.24648438 46.00835937 -20.03125 45.515625 C-17.70775105 44.54305659 -15.38480298 43.5691707 -13.0625 42.59375 C-12.02673828 42.1699707 -10.99097656 41.74619141 -9.92382812 41.30957031 C-7.62285669 40.47900395 -7.62285669 40.47900395 -6.53125 39.265625 C-7.31363037 38.93763916 -8.09601074 38.60965332 -8.90209961 38.27172852 C-11.79713172 37.05672397 -14.69123374 35.83953804 -17.5847168 34.62084961 C-18.83857816 34.0932757 -20.09280927 33.56657969 -21.34741211 33.04077148 C-23.14793711 32.28598799 -24.9470383 31.52781082 -26.74609375 30.76953125 C-27.83011475 30.31392822 -28.91413574 29.8583252 -30.03100586 29.38891602 C-32.53125 28.265625 -32.53125 28.265625 -33.53125 27.265625 C-34.01822281 24.5061124 -33.84879476 22.80189814 -32.4140625 20.37890625 C-31.16224633 18.63555774 -29.87889828 16.93574627 -28.53125 15.265625 C-21.99155173 15.43439141 -18.10542506 19.31291383 -13.28125 23.265625 C-11.67282427 24.55847353 -10.06349354 25.85019723 -8.453125 27.140625 C-7.74768555 27.71554688 -7.04224609 28.29046875 -6.31542969 28.8828125 C-4.5731861 30.32567427 -4.5731861 30.32567427 -2.53125 31.265625 C-2.26194019 24.66753468 -3.12725695 18.3619671 -4.09375 11.8515625 C-4.49265284 8.58198388 -4.76247994 5.55101706 -4.53125 2.265625 C-2.53125 0.265625 -2.53125 0.265625 0 0 Z " fill="#EBEBED" transform="translate(418.53125,158.734375)"/>
<path d="M0 0 C5.28 0 10.56 0 16 0 C16 5.61 16 11.22 16 17 C14 14 14 14 13.02734375 12.1328125 C9.83480891 6.25122502 6.02933501 3.73224767 0 1 C0 0.67 0 0.34 0 0 Z " fill="#000000" transform="translate(484,0)"/>
<path d="M0 0 C5.28 0 10.56 0 16 0 C12 3 12 3 9.0625 4.625 C5.0068152 7.77022494 3.20262435 11.4388133 1 16 C0.67 16 0.34 16 0 16 C0 10.72 0 5.44 0 0 Z " fill="#000000" transform="translate(0,0)"/>
<path d="M0 0 C0.33 0 0.66 0 1 0 C1 5.28 1 10.56 1 16 C-4.28 16 -9.56 16 -15 16 C-12.90339962 14.60226641 -10.77509962 13.25144977 -8.625 11.9375 C-4.26731967 8.86584422 -2.23791542 4.7336552 0 0 Z " fill="#000000" transform="translate(499,484)"/>
<path d="M0 0 C3 4 3 4 4.10546875 5.78125 C7.21460722 10.71995371 10.62686901 12.85341417 16 15 C16 15.33 16 15.66 16 16 C10.72 16 5.44 16 0 16 C0 10.72 0 5.44 0 0 Z " fill="#000000" transform="translate(0,484)"/>
</svg>
